<?xml version="1.0" encoding="UTF-8" standalone="no"?>
<!DOCTYPE svg PUBLIC "-//W3C//DTD SVG 1.1//EN"
 "http://www.w3.org/Graphics/SVG/1.1/DTD/svg11.dtd">
<!-- Generated by graphviz version 2.38.0 (20140413.2041)
 -->
<!-- Title: G Pages: 1 -->
<svg width="654pt" height="421pt"
 viewBox="0.00 0.00 654.44 421.44" xmlns="http://www.w3.org/2000/svg" xmlns:xlink="http://www.w3.org/1999/xlink">
<g id="graph0" class="graph" transform="scale(1 1) rotate(0) translate(0.72 420.72)">
<title>G</title>
<polygon fill="white" stroke="none" points="-0.72,0.72 -0.72,-420.72 653.72,-420.72 653.72,0.72 -0.72,0.72"/>
<g id="clust1" class="cluster"><title>cluster_Module_Example_1</title>
<polygon fill="white" stroke="black" points="260,-268 260,-412 580,-412 580,-268 260,-268"/>
<text text-anchor="middle" x="420" y="-396" font-family="times:bold" font-size="15.00">Module Example 1</text>
</g>
<g id="clust2" class="cluster"><title>cluster_Module_Example_2</title>
<polygon fill="white" stroke="black" points="405,-8 405,-232 645,-232 645,-8 405,-8"/>
<text text-anchor="middle" x="525" y="-216" font-family="times:bold" font-size="15.00">Module Example 2</text>
</g>
<g id="clust3" class="cluster"><title>cluster_package_1</title>
<polygon fill="white" stroke="black" points="8,-124 8,-412 252,-412 252,-124 8,-124"/>
<text text-anchor="middle" x="130" y="-396" font-family="times:bold" font-size="15.00">package 1</text>
</g>
<g id="clust4" class="cluster"><title>cluster_package_2</title>
<polygon fill="white" stroke="black" points="80,-132 80,-251 244,-251 244,-132 80,-132"/>
<text text-anchor="middle" x="162" y="-235" font-family="times:bold" font-size="15.00">package 2</text>
</g>
<g id="clust5" class="cluster"><title>cluster_package_3</title>
<polygon fill="white" stroke="black" points="150,-140 150,-218 236,-218 236,-140 150,-140"/>
<text text-anchor="middle" x="193" y="-202" font-family="times:bold" font-size="15.00">package 3</text>
</g>
<!-- callee.\n |with color:green| -->
<g id="node1" class="node"><title>callee.\n |with color:green|</title>
<path fill="darkgreen" stroke="#800000" stroke-width="2" d="M280.5,-276.5C280.5,-276.5 357.5,-276.5 357.5,-276.5 363.5,-276.5 369.5,-282.5 369.5,-288.5 369.5,-288.5 369.5,-300.5 369.5,-300.5 369.5,-306.5 363.5,-312.5 357.5,-312.5 357.5,-312.5 280.5,-312.5 280.5,-312.5 274.5,-312.5 268.5,-306.5 268.5,-300.5 268.5,-300.5 268.5,-288.5 268.5,-288.5 268.5,-282.5 274.5,-276.5 280.5,-276.5"/>
<text text-anchor="middle" x="319" y="-297.9" font-family="times" font-size="12.00" fill="white">callee.</text>
<text text-anchor="middle" x="319" y="-284.9" font-family="times" font-size="12.00" fill="white"> |with color:green|</text>
</g>
<!-- caller -->
<g id="node2" class="node"><title>caller</title>
<path fill="darkgreen" stroke="#800000" stroke-width="2" d="M465,-342.5C465,-342.5 495,-342.5 495,-342.5 501,-342.5 507,-348.5 507,-354.5 507,-354.5 507,-366.5 507,-366.5 507,-372.5 501,-378.5 495,-378.5 495,-378.5 465,-378.5 465,-378.5 459,-378.5 453,-372.5 453,-366.5 453,-366.5 453,-354.5 453,-354.5 453,-348.5 459,-342.5 465,-342.5"/>
<text text-anchor="middle" x="480" y="-357.4" font-family="times" font-size="12.00" fill="white">caller</text>
</g>
<!-- caller&#45;&gt;callee.\n |with color:green| -->
<g id="edge1" class="edge"><title>caller&#45;&gt;callee.\n |with color:green|</title>
<path fill="none" stroke="darkgreen" d="M452.675,-351.074C438.099,-346.393 419.932,-340.262 404,-334 390.776,-328.802 376.635,-322.646 363.759,-316.8"/>
<polygon fill="darkgreen" stroke="darkgreen" points="354.637,-312.615 365.603,-312.695 359.182,-314.7 363.726,-316.785 363.726,-316.785 363.726,-316.785 359.182,-314.7 361.85,-320.875 354.637,-312.615 354.637,-312.615"/>
<text text-anchor="middle" x="440" y="-324.4" font-family="times" font-size="12.00">called by caller</text>
</g>
<!-- caller depend on this -->
<g id="node3" class="node"><title>caller depend on this</title>
<path fill="#ffffbf" stroke="#800000" d="M399.5,-276.5C399.5,-276.5 560.5,-276.5 560.5,-276.5 566.5,-276.5 572.5,-282.5 572.5,-288.5 572.5,-288.5 572.5,-300.5 572.5,-300.5 572.5,-306.5 566.5,-312.5 560.5,-312.5 560.5,-312.5 399.5,-312.5 399.5,-312.5 393.5,-312.5 387.5,-306.5 387.5,-300.5 387.5,-300.5 387.5,-288.5 387.5,-288.5 387.5,-282.5 393.5,-276.5 399.5,-276.5"/>
<text text-anchor="middle" x="432" y="-292.3" font-family="times" font-size="9.00">caller depend on this</text>
<polyline fill="none" stroke="#800000" points="476.5,-276.5 476.5,-312.5 "/>
<text text-anchor="middle" x="500.5" y="-292.3" font-family="times" font-size="9.00">paracell1</text>
<polyline fill="none" stroke="#800000" points="524.5,-276.5 524.5,-312.5 "/>
<text text-anchor="middle" x="548.5" y="-292.3" font-family="times" font-size="9.00">paracell2</text>
</g>
<!-- caller&#45;&gt;caller depend on this -->
<g id="edge2" class="edge"><title>caller&#45;&gt;caller depend on this</title>
<path fill="none" stroke="black" stroke-width="0.5" stroke-dasharray="5,2" d="M480,-342.349C480,-334.888 480,-326.044 480,-318.06"/>
<polygon fill="black" stroke="black" stroke-width="0.5" points="480,-312.698 482.25,-317.698 480,-315.198 480,-317.698 480,-317.698 480,-317.698 480,-315.198 477.75,-317.698 480,-312.698 480,-312.698"/>
</g>
<!-- database1 -->
<g id="node4" class="node"><title>database1</title>
<path fill="#ffffbf" stroke="#800000" d="M425,-134.5C425,-134.5 461,-134.5 461,-134.5 467,-134.5 473,-140.5 473,-146.5 473,-146.5 473,-186.5 473,-186.5 473,-192.5 467,-198.5 461,-198.5 461,-198.5 425,-198.5 425,-198.5 419,-198.5 413,-192.5 413,-186.5 413,-186.5 413,-146.5 413,-146.5 413,-140.5 419,-134.5 425,-134.5"/>
<text text-anchor="middle" x="443" y="-187.3" font-family="times" font-size="9.00">database1</text>
<polyline fill="none" stroke="#800000" points="413,-180.5 473,-180.5 "/>
<text text-anchor="middle" x="443" y="-169.3" font-family="times" font-size="9.00">database2 &amp;</text>
<text text-anchor="middle" x="443" y="-159.3" font-family="times" font-size="9.00"> database3</text>
<polyline fill="none" stroke="#800000" points="413,-152.5 473,-152.5 "/>
<text text-anchor="middle" x="443" y="-141.3" font-family="times" font-size="9.00">database4</text>
</g>
<!-- caller depend on this&#45;&gt;database1 -->
<g id="edge3" class="edge"><title>caller depend on this:P1&#45;&gt;database1:D4</title>
<path fill="none" stroke="black" stroke-width="0.5" stroke-dasharray="5,2" d="M501,-275.5C501,-261.72 486.944,-263.862 482,-251 478.206,-241.13 484.211,-164.906 477.429,-147.176"/>
<polygon fill="black" stroke="black" stroke-width="0.5" points="474,-143.5 479.056,-145.621 475.705,-145.328 477.411,-147.156 477.411,-147.156 477.411,-147.156 475.705,-145.328 475.765,-148.691 474,-143.5 474,-143.5"/>
</g>
<!-- P -->
<g id="node10" class="node"><title>P</title>
<path fill="#ffffbf" stroke="#800000" d="M179,-70.5C179,-70.5 209,-70.5 209,-70.5 215,-70.5 221,-76.5 221,-82.5 221,-82.5 221,-94.5 221,-94.5 221,-100.5 215,-106.5 209,-106.5 209,-106.5 179,-106.5 179,-106.5 173,-106.5 167,-100.5 167,-94.5 167,-94.5 167,-82.5 167,-82.5 167,-76.5 173,-70.5 179,-70.5"/>
<text text-anchor="middle" x="194" y="-86.3" font-family="times" font-size="9.00">P</text>
</g>
<!-- database1&#45;&gt;P -->
<g id="edge8" class="edge"><title>database1:D4&#45;&gt;P</title>
<path fill="none" stroke="black" stroke-width="0.5" d="M412,-143.5C344.233,-143.5 268,-118.61 226.033,-102.627"/>
<polygon fill="none" stroke="black" stroke-width="0.5" points="226.63,-100.982 221.336,-100.82 225.374,-104.248 226.63,-100.982"/>
</g>
<!-- depend on caller -->
<g id="node5" class="node"><title>depend on caller</title>
<path fill="#ffffbf" stroke="#800000" d="M575,-148.5C575,-148.5 625,-148.5 625,-148.5 631,-148.5 637,-154.5 637,-160.5 637,-160.5 637,-172.5 637,-172.5 637,-178.5 631,-184.5 625,-184.5 625,-184.5 575,-184.5 575,-184.5 569,-184.5 563,-178.5 563,-172.5 563,-172.5 563,-160.5 563,-160.5 563,-154.5 569,-148.5 575,-148.5"/>
<text text-anchor="middle" x="600" y="-164.3" font-family="times" font-size="9.00">depend on caller</text>
</g>
<!-- depend on caller&#45;&gt;caller -->
<g id="edge4" class="edge"><title>depend on caller&#45;&gt;caller</title>
<path fill="none" stroke="black" stroke-width="0.5" stroke-dasharray="5,2" d="M602.857,-184.678C606.747,-214.036 610.31,-274.421 582,-313 565.515,-335.464 535.566,-347.346 512.368,-353.455"/>
<polygon fill="black" stroke="black" stroke-width="0.5" points="507.23,-354.744 511.532,-351.345 509.655,-354.136 512.08,-353.528 512.08,-353.528 512.08,-353.528 509.655,-354.136 512.627,-355.71 507.23,-354.744 507.23,-354.744"/>
</g>
<!-- orphan1 -->
<g id="node6" class="node"><title>orphan1</title>
<path fill="#ffffbf" stroke="#800000" d="M503,-148.5C503,-148.5 533,-148.5 533,-148.5 539,-148.5 545,-154.5 545,-160.5 545,-160.5 545,-172.5 545,-172.5 545,-178.5 539,-184.5 533,-184.5 533,-184.5 503,-184.5 503,-184.5 497,-184.5 491,-178.5 491,-172.5 491,-172.5 491,-160.5 491,-160.5 491,-154.5 497,-148.5 503,-148.5"/>
<text text-anchor="middle" x="518" y="-164.3" font-family="times" font-size="9.00">orphan1</text>
</g>
<!-- orphan2 -->
<g id="node7" class="node"><title>orphan2</title>
<path fill="#ffffbf" stroke="#800000" d="M503,-70.5C503,-70.5 533,-70.5 533,-70.5 539,-70.5 545,-76.5 545,-82.5 545,-82.5 545,-94.5 545,-94.5 545,-100.5 539,-106.5 533,-106.5 533,-106.5 503,-106.5 503,-106.5 497,-106.5 491,-100.5 491,-94.5 491,-94.5 491,-82.5 491,-82.5 491,-76.5 497,-70.5 503,-70.5"/>
<text text-anchor="middle" x="518" y="-86.3" font-family="times" font-size="9.00">orphan2</text>
</g>
<!-- orphan1&#45;&gt;orphan2 -->
<g id="edge5" class="edge"><title>orphan1&#45;&gt;orphan2</title>
<path fill="none" stroke="white" stroke-width="0.5" d="M518,-148.254C518,-135.817 518,-119.099 518,-106.677"/>
</g>
<!-- orphan3 -->
<g id="node8" class="node"><title>orphan3</title>
<path fill="#ffffbf" stroke="#800000" d="M503,-16.5C503,-16.5 533,-16.5 533,-16.5 539,-16.5 545,-22.5 545,-28.5 545,-28.5 545,-40.5 545,-40.5 545,-46.5 539,-52.5 533,-52.5 533,-52.5 503,-52.5 503,-52.5 497,-52.5 491,-46.5 491,-40.5 491,-40.5 491,-28.5 491,-28.5 491,-22.5 497,-16.5 503,-16.5"/>
<text text-anchor="middle" x="518" y="-32.3" font-family="times" font-size="9.00">orphan3</text>
</g>
<!-- orphan2&#45;&gt;orphan3 -->
<g id="edge6" class="edge"><title>orphan2&#45;&gt;orphan3</title>
<path fill="none" stroke="white" stroke-width="0.5" d="M518,-70.4733C518,-64.7862 518,-58.4464 518,-52.743"/>
</g>
<!-- p5 -->
<g id="node9" class="node"><title>p5</title>
<path fill="#ffffbf" stroke="#800000" d="M100,-148.5C100,-148.5 130,-148.5 130,-148.5 136,-148.5 142,-154.5 142,-160.5 142,-160.5 142,-172.5 142,-172.5 142,-178.5 136,-184.5 130,-184.5 130,-184.5 100,-184.5 100,-184.5 94,-184.5 88,-178.5 88,-172.5 88,-172.5 88,-160.5 88,-160.5 88,-154.5 94,-148.5 100,-148.5"/>
<text text-anchor="middle" x="115" y="-164.3" font-family="times" font-size="9.00">p5</text>
</g>
<!-- p5&#45;&gt;P -->
<g id="edge7" class="edge"><title>p5&#45;&gt;P</title>
<path fill="none" stroke="black" stroke-width="0.5" stroke-dasharray="1,5" d="M125.994,-148.398C131.493,-140.514 138.556,-131.308 146,-124 152.371,-117.745 159.955,-111.757 167.193,-106.577"/>
</g>
<!-- p6\n next line -->
<g id="node15" class="node"><title>p6\n next line</title>
<path fill="#ffffbf" stroke="#800000" d="M179,-148.5C179,-148.5 209,-148.5 209,-148.5 215,-148.5 221,-154.5 221,-160.5 221,-160.5 221,-172.5 221,-172.5 221,-178.5 215,-184.5 209,-184.5 209,-184.5 179,-184.5 179,-184.5 173,-184.5 167,-178.5 167,-172.5 167,-172.5 167,-160.5 167,-160.5 167,-154.5 173,-148.5 179,-148.5"/>
<text text-anchor="middle" x="194" y="-169.3" font-family="times" font-size="9.00">p6</text>
<text text-anchor="middle" x="194" y="-159.3" font-family="times" font-size="9.00"> next line</text>
</g>
<!-- P&#45;&gt;p6\n next line -->
<g id="edge13" class="edge"><title>P&#45;&gt;p6\n next line</title>
<path fill="none" stroke="black" stroke-width="0.5" stroke-dasharray="5,2" d="M194,-106.677C194,-117.45 194,-131.452 194,-143.092"/>
<polygon fill="none" stroke="black" stroke-width="0.5" points="192.25,-143.254 194,-148.254 195.75,-143.254 192.25,-143.254"/>
</g>
<!-- p1 -->
<g id="node11" class="node"><title>p1</title>
<path fill="#ffffbf" stroke="#800000" d="M100,-342.5C100,-342.5 130,-342.5 130,-342.5 136,-342.5 142,-348.5 142,-354.5 142,-354.5 142,-366.5 142,-366.5 142,-372.5 136,-378.5 130,-378.5 130,-378.5 100,-378.5 100,-378.5 94,-378.5 88,-372.5 88,-366.5 88,-366.5 88,-354.5 88,-354.5 88,-348.5 94,-342.5 100,-342.5"/>
<text text-anchor="middle" x="115" y="-358.3" font-family="times" font-size="9.00">p1</text>
</g>
<!-- p3 -->
<g id="node13" class="node"><title>p3</title>
<path fill="#ffffbf" stroke="#800000" d="M100,-276.5C100,-276.5 130,-276.5 130,-276.5 136,-276.5 142,-282.5 142,-288.5 142,-288.5 142,-300.5 142,-300.5 142,-306.5 136,-312.5 130,-312.5 130,-312.5 100,-312.5 100,-312.5 94,-312.5 88,-306.5 88,-300.5 88,-300.5 88,-288.5 88,-288.5 88,-282.5 94,-276.5 100,-276.5"/>
<text text-anchor="middle" x="115" y="-292.3" font-family="times" font-size="9.00">p3</text>
</g>
<!-- p1&#45;&gt;p3 -->
<g id="edge9" class="edge"><title>p1&#45;&gt;p3</title>
<path fill="none" stroke="white" stroke-width="0.5" d="M115,-342.349C115,-333.167 115,-321.888 115,-312.698"/>
</g>
<!-- p2 -->
<g id="node12" class="node"><title>p2</title>
<path fill="#ffffbf" stroke="#800000" d="M28,-276.5C28,-276.5 58,-276.5 58,-276.5 64,-276.5 70,-282.5 70,-288.5 70,-288.5 70,-300.5 70,-300.5 70,-306.5 64,-312.5 58,-312.5 58,-312.5 28,-312.5 28,-312.5 22,-312.5 16,-306.5 16,-300.5 16,-300.5 16,-288.5 16,-288.5 16,-282.5 22,-276.5 28,-276.5"/>
<text text-anchor="middle" x="43" y="-292.3" font-family="times" font-size="9.00">p2</text>
</g>
<!-- p2&#45;&gt;p5 -->
<g id="edge11" class="edge"><title>p2&#45;&gt;p5</title>
<path fill="none" stroke="black" stroke-width="0.5" d="M62.7737,-276.3C70.1901,-269.067 78.214,-260.199 84,-251 95.8054,-232.231 104.112,-208.291 109.135,-190.861"/>
<polygon fill="none" stroke="black" stroke-width="0.5" points="109.226,-190.535 108.105,-187.108 110.837,-184.756 111.958,-188.183 109.226,-190.535"/>
</g>
<!-- p4 -->
<g id="node14" class="node"><title>p4</title>
<path fill="#ffffbf" stroke="#800000" d="M28,-148.5C28,-148.5 58,-148.5 58,-148.5 64,-148.5 70,-154.5 70,-160.5 70,-160.5 70,-172.5 70,-172.5 70,-178.5 64,-184.5 58,-184.5 58,-184.5 28,-184.5 28,-184.5 22,-184.5 16,-178.5 16,-172.5 16,-172.5 16,-160.5 16,-160.5 16,-154.5 22,-148.5 28,-148.5"/>
<text text-anchor="middle" x="43" y="-164.3" font-family="times" font-size="9.00">p4</text>
</g>
<!-- p2&#45;&gt;p4 -->
<g id="edge10" class="edge"><title>p2&#45;&gt;p4</title>
<path fill="none" stroke="white" stroke-width="0.5" d="M43,-276.244C43,-252.116 43,-208.564 43,-184.547"/>
</g>
<!-- p3&#45;&gt;p5 -->
<g id="edge12" class="edge"><title>p3&#45;&gt;p5</title>
<path fill="none" stroke="black" stroke-width="0.5" d="M115,-276.244C115,-254.095 115,-215.578 115,-190.83"/>
<polygon fill="black" stroke="black" stroke-width="0.5" points="115,-190.547 113,-187.547 115,-184.547 117,-187.547 115,-190.547"/>
</g>
</g>
</svg>
