<?xml version="1.0" encoding="UTF-8" standalone="no"?>
<!DOCTYPE svg PUBLIC "-//W3C//DTD SVG 1.1//EN"
 "http://www.w3.org/Graphics/SVG/1.1/DTD/svg11.dtd">
<!-- Generated by graphviz version 2.50.0 (20211204.2007)
 -->
<!-- Title: G Pages: 1 -->
<svg width="514pt" height="555pt"
 viewBox="0.00 0.00 514.00 555.00" xmlns="http://www.w3.org/2000/svg" xmlns:xlink="http://www.w3.org/1999/xlink">
<g id="graph0" class="graph" transform="scale(1 1) rotate(0) translate(4 551)">
<title>G</title>
<polygon fill="white" stroke="transparent" points="-4,4 -4,-551 510,-551 510,4 -4,4"/>
<g id="clust1" class="cluster">
<title>cluster_State_Machine_Diagram_of_Process</title>
<polygon fill="white" stroke="black" points="8,-8 8,-539 498,-539 498,-8 8,-8"/>
<text text-anchor="middle" x="253" y="-523" font-family="times:bold" font-size="15.00">State Machine Diagram of Process</text>
</g>
<!-- 描述进程状态机变迁路径与条件 -->
<g id="node1" class="node">
<title>描述进程状态机变迁路径与条件</title>
<path fill="#ffffbf" stroke="#800000" d="M352.5,-469.5C352.5,-469.5 471.5,-469.5 471.5,-469.5 477.5,-469.5 483.5,-475.5 483.5,-481.5 483.5,-481.5 483.5,-493.5 483.5,-493.5 483.5,-499.5 477.5,-505.5 471.5,-505.5 471.5,-505.5 352.5,-505.5 352.5,-505.5 346.5,-505.5 340.5,-499.5 340.5,-493.5 340.5,-493.5 340.5,-481.5 340.5,-481.5 340.5,-475.5 346.5,-469.5 352.5,-469.5"/>
<text text-anchor="middle" x="412" y="-485.3" font-family="times" font-size="9.00">描述进程状态机变迁路径与条件</text>
</g>
<!-- Load ELF -->
<g id="node2" class="node">
<title>Load ELF</title>
<path fill="#ffffbf" stroke="#800000" d="M136,-469.5C136,-469.5 166,-469.5 166,-469.5 172,-469.5 178,-475.5 178,-481.5 178,-481.5 178,-493.5 178,-493.5 178,-499.5 172,-505.5 166,-505.5 166,-505.5 136,-505.5 136,-505.5 130,-505.5 124,-499.5 124,-493.5 124,-493.5 124,-481.5 124,-481.5 124,-475.5 130,-469.5 136,-469.5"/>
<text text-anchor="middle" x="151" y="-485.3" font-family="times" font-size="9.00">Load ELF</text>
</g>
<!-- PROC_CREATED_STATE -->
<g id="node3" class="node">
<title>PROC_CREATED_STATE</title>
<path fill="#ffffbf" stroke="#800000" d="M218.5,-415.5C218.5,-415.5 311.5,-415.5 311.5,-415.5 317.5,-415.5 323.5,-421.5 323.5,-427.5 323.5,-427.5 323.5,-439.5 323.5,-439.5 323.5,-445.5 317.5,-451.5 311.5,-451.5 311.5,-451.5 218.5,-451.5 218.5,-451.5 212.5,-451.5 206.5,-445.5 206.5,-439.5 206.5,-439.5 206.5,-427.5 206.5,-427.5 206.5,-421.5 212.5,-415.5 218.5,-415.5"/>
<text text-anchor="middle" x="265" y="-431.3" font-family="times" font-size="9.00">PROC_CREATED_STATE</text>
</g>
<!-- Load ELF&#45;&gt;PROC_CREATED_STATE -->
<g id="edge1" class="edge">
<title>Load ELF&#45;&gt;PROC_CREATED_STATE</title>
<path fill="none" stroke="black" stroke-width="0.5" d="M178.02,-474.18C191.38,-468.08 207.82,-460.58 222.8,-453.75"/>
<polygon fill="black" stroke="black" stroke-width="0.5" points="227.4,-451.65 223.78,-455.78 225.12,-452.69 222.85,-453.73 222.85,-453.73 222.85,-453.73 225.12,-452.69 221.91,-451.68 227.4,-451.65 227.4,-451.65"/>
</g>
<!-- PROC_FAILED_STATE -->
<g id="node14" class="node">
<title>PROC_FAILED_STATE</title>
<path fill="#ffffbf" stroke="#800000" d="M218.5,-152.5C218.5,-152.5 301.5,-152.5 301.5,-152.5 307.5,-152.5 313.5,-158.5 313.5,-164.5 313.5,-164.5 313.5,-176.5 313.5,-176.5 313.5,-182.5 307.5,-188.5 301.5,-188.5 301.5,-188.5 218.5,-188.5 218.5,-188.5 212.5,-188.5 206.5,-182.5 206.5,-176.5 206.5,-176.5 206.5,-164.5 206.5,-164.5 206.5,-158.5 212.5,-152.5 218.5,-152.5"/>
<text text-anchor="middle" x="260" y="-168.3" font-family="times" font-size="9.00">PROC_FAILED_STATE</text>
</g>
<!-- Load ELF&#45;&gt;PROC_FAILED_STATE -->
<g id="edge13" class="edge">
<title>Load ELF&#45;&gt;PROC_FAILED_STATE</title>
<path fill="none" stroke="black" stroke-width="0.5" d="M149.61,-469.25C147.98,-443.39 146.57,-393.23 156,-352 164.65,-314.17 177.07,-308.22 191,-272 203.61,-239.2 193.81,-224.24 216,-197 217.38,-195.31 218.9,-193.7 220.53,-192.18"/>
<polygon fill="black" stroke="black" stroke-width="0.5" points="224.5,-188.8 222.15,-193.76 222.6,-190.42 220.7,-192.05 220.7,-192.05 220.7,-192.05 222.6,-190.42 219.24,-190.33 224.5,-188.8 224.5,-188.8"/>
</g>
<!-- PROC_LOADING_STATE -->
<g id="node5" class="node">
<title>PROC_LOADING_STATE</title>
<path fill="#ffffbf" stroke="#800000" d="M386,-352.5C386,-352.5 478,-352.5 478,-352.5 484,-352.5 490,-358.5 490,-364.5 490,-364.5 490,-376.5 490,-376.5 490,-382.5 484,-388.5 478,-388.5 478,-388.5 386,-388.5 386,-388.5 380,-388.5 374,-382.5 374,-376.5 374,-376.5 374,-364.5 374,-364.5 374,-358.5 380,-352.5 386,-352.5"/>
<text text-anchor="middle" x="432" y="-368.3" font-family="times" font-size="9.00">PROC_LOADING_STATE</text>
</g>
<!-- PROC_CREATED_STATE&#45;&gt;PROC_LOADING_STATE -->
<g id="edge3" class="edge">
<title>PROC_CREATED_STATE&#45;&gt;PROC_LOADING_STATE</title>
<path fill="none" stroke="black" stroke-width="0.5" d="M311.96,-415.35C333.31,-407.55 358.62,-398.3 380.49,-390.31"/>
<polygon fill="black" stroke="black" stroke-width="0.5" points="385.39,-388.53 381.46,-392.35 383.04,-389.38 380.69,-390.24 380.69,-390.24 380.69,-390.24 383.04,-389.38 379.92,-388.13 385.39,-388.53 385.39,-388.53"/>
<text text-anchor="middle" x="429.5" y="-399.8" font-family="times" font-size="9.00">To be loaded by the kernel thread</text>
</g>
<!-- Process is created -->
<g id="node4" class="node">
<title>Process is created</title>
<polygon fill="aliceblue" stroke="#800000" stroke-dasharray="5,2" points="304,-505.5 220,-505.5 220,-469.5 310,-469.5 310,-499.5 304,-505.5"/>
<polyline fill="none" stroke="#800000" stroke-dasharray="5,2" points="304,-505.5 304,-499.5 "/>
<polyline fill="none" stroke="#800000" stroke-dasharray="5,2" points="310,-499.5 304,-499.5 "/>
<text text-anchor="middle" x="265" y="-485.3" font-family="times" font-size="9.00">Process is created</text>
</g>
<!-- Process is created&#45;&gt;PROC_CREATED_STATE -->
<g id="edge2" class="edge">
<title>Process is created&#45;&gt;PROC_CREATED_STATE</title>
<path fill="none" stroke="black" stroke-width="0.5" stroke-dasharray="5,2" d="M265,-469.47C265,-463.79 265,-457.45 265,-451.74"/>
</g>
<!-- PROC_STOPPED_STATE -->
<g id="node6" class="node">
<title>PROC_STOPPED_STATE</title>
<path fill="#ffffbf" stroke="#800000" d="M223,-298.5C223,-298.5 317,-298.5 317,-298.5 323,-298.5 329,-304.5 329,-310.5 329,-310.5 329,-322.5 329,-322.5 329,-328.5 323,-334.5 317,-334.5 317,-334.5 223,-334.5 223,-334.5 217,-334.5 211,-328.5 211,-322.5 211,-322.5 211,-310.5 211,-310.5 211,-304.5 217,-298.5 223,-298.5"/>
<text text-anchor="middle" x="270" y="-314.3" font-family="times" font-size="9.00">PROC_STOPPED_STATE</text>
</g>
<!-- PROC_LOADING_STATE&#45;&gt;PROC_STOPPED_STATE -->
<g id="edge4" class="edge">
<title>PROC_LOADING_STATE&#45;&gt;PROC_STOPPED_STATE</title>
<path fill="none" stroke="black" stroke-width="0.5" d="M378.96,-352.47C362.73,-347.27 344.8,-341.51 328.25,-336.2"/>
<polygon fill="black" stroke="black" stroke-width="0.5" points="323.16,-334.56 328.61,-333.95 325.54,-335.33 327.92,-336.09 327.92,-336.09 327.92,-336.09 325.54,-335.33 327.24,-338.24 323.16,-334.56 323.16,-334.56"/>
</g>
<!-- PROC_STARTING_STATE -->
<g id="node8" class="node">
<title>PROC_STARTING_STATE</title>
<path fill="#ffffbf" stroke="#800000" d="M252,-235.5C252,-235.5 350,-235.5 350,-235.5 356,-235.5 362,-241.5 362,-247.5 362,-247.5 362,-259.5 362,-259.5 362,-265.5 356,-271.5 350,-271.5 350,-271.5 252,-271.5 252,-271.5 246,-271.5 240,-265.5 240,-259.5 240,-259.5 240,-247.5 240,-247.5 240,-241.5 246,-235.5 252,-235.5"/>
<text text-anchor="middle" x="301" y="-251.3" font-family="times" font-size="9.00">PROC_STARTING_STATE</text>
</g>
<!-- PROC_STOPPED_STATE&#45;&gt;PROC_STARTING_STATE -->
<g id="edge6" class="edge">
<title>PROC_STOPPED_STATE&#45;&gt;PROC_STARTING_STATE</title>
<path fill="none" stroke="black" stroke-width="0.5" d="M278.8,-298.18C282.23,-291.43 286.21,-283.61 289.84,-276.46"/>
<polygon fill="black" stroke="black" stroke-width="0.5" points="292.28,-271.65 292.03,-277.13 291.15,-273.88 290.02,-276.11 290.02,-276.11 290.02,-276.11 291.15,-273.88 288.01,-275.09 292.28,-271.65 292.28,-271.65"/>
<text text-anchor="middle" x="359.5" y="-282.8" font-family="times" font-size="9.00">To be started by the kernel thread</text>
</g>
<!-- PROC_UNLOADING_STATE -->
<g id="node13" class="node">
<title>PROC_UNLOADING_STATE</title>
<path fill="#ffffbf" stroke="#800000" d="M28,-16.5C28,-16.5 132,-16.5 132,-16.5 138,-16.5 144,-22.5 144,-28.5 144,-28.5 144,-40.5 144,-40.5 144,-46.5 138,-52.5 132,-52.5 132,-52.5 28,-52.5 28,-52.5 22,-52.5 16,-46.5 16,-40.5 16,-40.5 16,-28.5 16,-28.5 16,-22.5 22,-16.5 28,-16.5"/>
<text text-anchor="middle" x="80" y="-32.3" font-family="times" font-size="9.00">PROC_UNLOADING_STATE</text>
</g>
<!-- PROC_STOPPED_STATE&#45;&gt;PROC_UNLOADING_STATE -->
<g id="edge12" class="edge">
<title>PROC_STOPPED_STATE&#45;&gt;PROC_UNLOADING_STATE</title>
<path fill="none" stroke="black" stroke-width="0.5" d="M210.83,-312.82C149.21,-308.64 58.69,-298.12 37,-272 -23.14,-199.6 14.24,-145.83 55,-61 55.65,-59.64 56.41,-58.3 57.24,-57.01"/>
<polygon fill="black" stroke="black" stroke-width="0.5" points="60.34,-52.74 59.23,-58.1 58.87,-54.76 57.4,-56.79 57.4,-56.79 57.4,-56.79 58.87,-54.76 55.58,-55.47 60.34,-52.74 60.34,-52.74"/>
<text text-anchor="middle" x="91" y="-168.3" font-family="times" font-size="9.00">To be unloaded by the kernel thread</text>
</g>
<!-- PROC_KILLING_STATE -->
<g id="node16" class="node">
<title>PROC_KILLING_STATE</title>
<path fill="#ffffbf" stroke="#800000" d="M87,-89.5C87,-89.5 173,-89.5 173,-89.5 179,-89.5 185,-95.5 185,-101.5 185,-101.5 185,-113.5 185,-113.5 185,-119.5 179,-125.5 173,-125.5 173,-125.5 87,-125.5 87,-125.5 81,-125.5 75,-119.5 75,-113.5 75,-113.5 75,-101.5 75,-101.5 75,-95.5 81,-89.5 87,-89.5"/>
<text text-anchor="middle" x="130" y="-105.3" font-family="times" font-size="9.00">PROC_KILLING_STATE</text>
</g>
<!-- PROC_STOPPED_STATE&#45;&gt;PROC_KILLING_STATE -->
<g id="edge15" class="edge">
<title>PROC_STOPPED_STATE&#45;&gt;PROC_KILLING_STATE</title>
<path fill="none" stroke="black" stroke-width="0.5" d="M249.07,-298.12C241.91,-290.88 234.77,-281.85 231,-272 219.06,-240.8 211.92,-220.16 236,-197 249.99,-183.54 309.92,-203.34 323,-189 334.08,-176.85 333.27,-164.84 323,-152 318.73,-146.66 245.14,-131.14 190.09,-120.17"/>
<polygon fill="black" stroke="black" stroke-width="0.5" points="185.16,-119.19 190.5,-117.95 187.61,-119.67 190.06,-120.16 190.06,-120.16 190.06,-120.16 187.61,-119.67 189.62,-122.37 185.16,-119.19 185.16,-119.19"/>
<text text-anchor="middle" x="313" y="-219.8" font-family="times" font-size="9.00">To be unloaded by the kernel thead,</text>
<text text-anchor="middle" x="313" y="-209.8" font-family="times" font-size="9.00"> from any complete state.</text>
<text text-anchor="middle" x="313" y="-199.8" font-family="times" font-size="9.00"> Should cleanup resources</text>
</g>
<!-- Process is ready to be started or unloaded -->
<g id="node7" class="node">
<title>Process is ready to be started or unloaded</title>
<polygon fill="aliceblue" stroke="#800000" stroke-dasharray="5,2" points="349.5,-388.5 164.5,-388.5 164.5,-352.5 355.5,-352.5 355.5,-382.5 349.5,-388.5"/>
<polyline fill="none" stroke="#800000" stroke-dasharray="5,2" points="349.5,-388.5 349.5,-382.5 "/>
<polyline fill="none" stroke="#800000" stroke-dasharray="5,2" points="355.5,-382.5 349.5,-382.5 "/>
<text text-anchor="middle" x="260" y="-368.3" font-family="times" font-size="9.00">Process is ready to be started or unloaded</text>
</g>
<!-- Process is ready to be started or unloaded&#45;&gt;PROC_STOPPED_STATE -->
<g id="edge5" class="edge">
<title>Process is ready to be started or unloaded&#45;&gt;PROC_STOPPED_STATE</title>
<path fill="none" stroke="black" stroke-width="0.5" stroke-dasharray="5,2" d="M263.27,-352.47C264.37,-346.79 265.59,-340.45 266.68,-334.74"/>
</g>
<!-- PROC_STARTED_STATE -->
<g id="node9" class="node">
<title>PROC_STARTED_STATE</title>
<path fill="#ffffbf" stroke="#800000" d="M364,-152.5C364,-152.5 458,-152.5 458,-152.5 464,-152.5 470,-158.5 470,-164.5 470,-164.5 470,-176.5 470,-176.5 470,-182.5 464,-188.5 458,-188.5 458,-188.5 364,-188.5 364,-188.5 358,-188.5 352,-182.5 352,-176.5 352,-176.5 352,-164.5 352,-164.5 352,-158.5 358,-152.5 364,-152.5"/>
<text text-anchor="middle" x="411" y="-168.3" font-family="times" font-size="9.00">PROC_STARTED_STATE</text>
</g>
<!-- PROC_STARTING_STATE&#45;&gt;PROC_STARTED_STATE -->
<g id="edge7" class="edge">
<title>PROC_STARTING_STATE&#45;&gt;PROC_STARTED_STATE</title>
<path fill="none" stroke="black" stroke-width="0.5" d="M362.12,-236.91C378.7,-232.46 392.54,-228.42 394,-227 402.97,-218.3 407.24,-205 409.25,-193.61"/>
<polygon fill="black" stroke="black" stroke-width="0.5" points="410.03,-188.53 411.5,-193.81 409.65,-191 409.27,-193.47 409.27,-193.47 409.27,-193.47 409.65,-191 407.05,-193.13 410.03,-188.53 410.03,-188.53"/>
</g>
<!-- PROC_DEINITIALIZING_STATE -->
<g id="node11" class="node">
<title>PROC_DEINITIALIZING_STATE</title>
<path fill="#ffffbf" stroke="#800000" d="M338,-89.5C338,-89.5 458,-89.5 458,-89.5 464,-89.5 470,-95.5 470,-101.5 470,-101.5 470,-113.5 470,-113.5 470,-119.5 464,-125.5 458,-125.5 458,-125.5 338,-125.5 338,-125.5 332,-125.5 326,-119.5 326,-113.5 326,-113.5 326,-101.5 326,-101.5 326,-95.5 332,-89.5 338,-89.5"/>
<text text-anchor="middle" x="398" y="-105.3" font-family="times" font-size="9.00">PROC_DEINITIALIZING_STATE</text>
</g>
<!-- PROC_STARTED_STATE&#45;&gt;PROC_DEINITIALIZING_STATE -->
<g id="edge9" class="edge">
<title>PROC_STARTED_STATE&#45;&gt;PROC_DEINITIALIZING_STATE</title>
<path fill="none" stroke="black" stroke-width="0.5" d="M351.9,-159.34C344.51,-155.66 337.85,-150.69 333,-144 328.75,-138.14 329.51,-133.15 333.28,-128.92"/>
<polygon fill="black" stroke="black" stroke-width="0.5" points="337.11,-125.54 334.85,-130.53 335.23,-127.19 333.36,-128.85 333.36,-128.85 333.36,-128.85 335.23,-127.19 331.87,-127.16 337.11,-125.54 337.11,-125.54"/>
<text text-anchor="middle" x="408.5" y="-136.8" font-family="times" font-size="9.00">To start the deinit thread of process</text>
</g>
<!-- PROC_STARTED_STATE&#45;&gt;PROC_KILLING_STATE -->
<g id="edge17" class="edge">
<title>PROC_STARTED_STATE&#45;&gt;PROC_KILLING_STATE</title>
<path fill="none" stroke="black" stroke-width="0.5" d="M351.72,-152.7C343.04,-149.96 334.25,-147.02 326,-144 315.53,-140.17 313.72,-137.06 303,-134 266.42,-123.55 224.21,-117.22 190.64,-113.48"/>
<polygon fill="black" stroke="black" stroke-width="0.5" points="185.32,-112.91 190.54,-111.21 187.81,-113.18 190.3,-113.45 190.3,-113.45 190.3,-113.45 187.81,-113.18 190.05,-115.68 185.32,-112.91 185.32,-112.91"/>
</g>
<!-- Process is running -->
<g id="node10" class="node">
<title>Process is running</title>
<polygon fill="aliceblue" stroke="#800000" stroke-dasharray="5,2" points="463.5,-271.5 380.5,-271.5 380.5,-235.5 469.5,-235.5 469.5,-265.5 463.5,-271.5"/>
<polyline fill="none" stroke="#800000" stroke-dasharray="5,2" points="463.5,-271.5 463.5,-265.5 "/>
<polyline fill="none" stroke="#800000" stroke-dasharray="5,2" points="469.5,-265.5 463.5,-265.5 "/>
<text text-anchor="middle" x="425" y="-251.3" font-family="times" font-size="9.00">Process is running</text>
</g>
<!-- Process is running&#45;&gt;PROC_STARTED_STATE -->
<g id="edge8" class="edge">
<title>Process is running&#45;&gt;PROC_STARTED_STATE</title>
<path fill="none" stroke="black" stroke-width="0.5" stroke-dasharray="5,2" d="M422.03,-235.32C419.66,-221.58 416.34,-202.39 413.96,-188.65"/>
</g>
<!-- PROC_STOPPING_STATE -->
<g id="node12" class="node">
<title>PROC_STOPPING_STATE</title>
<path fill="#ffffbf" stroke="#800000" d="M331,-16.5C331,-16.5 429,-16.5 429,-16.5 435,-16.5 441,-22.5 441,-28.5 441,-28.5 441,-40.5 441,-40.5 441,-46.5 435,-52.5 429,-52.5 429,-52.5 331,-52.5 331,-52.5 325,-52.5 319,-46.5 319,-40.5 319,-40.5 319,-28.5 319,-28.5 319,-22.5 325,-16.5 331,-16.5"/>
<text text-anchor="middle" x="380" y="-32.3" font-family="times" font-size="9.00">PROC_STOPPING_STATE</text>
</g>
<!-- PROC_DEINITIALIZING_STATE&#45;&gt;PROC_STOPPING_STATE -->
<g id="edge10" class="edge">
<title>PROC_DEINITIALIZING_STATE&#45;&gt;PROC_STOPPING_STATE</title>
<path fill="none" stroke="black" stroke-width="0.5" d="M338.78,-89.39C335.83,-86.96 333.19,-84.18 331,-81 325.95,-73.68 326.39,-68.6 331,-61 332,-59.34 333.16,-57.79 334.42,-56.34"/>
<polygon fill="black" stroke="black" stroke-width="0.5" points="338.03,-52.7 336.1,-57.84 336.27,-54.48 334.51,-56.25 334.51,-56.25 334.51,-56.25 336.27,-54.48 332.91,-54.67 338.03,-52.7 338.03,-52.7"/>
<text text-anchor="middle" x="407.5" y="-73.8" font-family="times" font-size="9.00">To be stopped by the kernel thread,</text>
<text text-anchor="middle" x="407.5" y="-63.8" font-family="times" font-size="9.00"> after deinit is complete</text>
</g>
<!-- PROC_STOPPING_STATE&#45;&gt;PROC_STOPPED_STATE -->
<g id="edge11" class="edge">
<title>PROC_STOPPING_STATE&#45;&gt;PROC_STOPPED_STATE</title>
<path fill="none" stroke="black" stroke-width="0.5" d="M441.12,-44.4C460.14,-48.43 477.78,-53.91 484,-61 497.41,-76.3 489,-86.16 489,-106.5 489,-254.5 489,-254.5 489,-254.5 489,-286.91 398.88,-302.84 334.26,-310.1"/>
<polygon fill="black" stroke="black" stroke-width="0.5" points="329.26,-310.65 333.99,-307.86 331.75,-310.37 334.23,-310.1 334.23,-310.1 334.23,-310.1 331.75,-310.37 334.48,-312.34 329.26,-310.65 329.26,-310.65"/>
</g>
<!-- PROC_FAILED_STATE&#45;&gt;PROC_UNLOADING_STATE -->
<g id="edge19" class="edge">
<title>PROC_FAILED_STATE&#45;&gt;PROC_UNLOADING_STATE</title>
<path fill="none" stroke="black" stroke-width="0.5" d="M206.24,-155.41C201.43,-154.23 196.63,-153.07 192,-152 136.3,-139.09 102.12,-170.33 66,-126 50.29,-106.72 59.01,-77.2 68.17,-57.16"/>
<polygon fill="black" stroke="black" stroke-width="0.5" points="70.37,-52.53 70.25,-58.02 69.29,-54.79 68.22,-57.05 68.22,-57.05 68.22,-57.05 69.29,-54.79 66.19,-56.09 70.37,-52.53 70.37,-52.53"/>
</g>
<!-- PROC_FAILED_STATE&#45;&gt;PROC_KILLING_STATE -->
<g id="edge16" class="edge">
<title>PROC_FAILED_STATE&#45;&gt;PROC_KILLING_STATE</title>
<path fill="none" stroke="black" stroke-width="0.5" d="M223.44,-152.35C207.1,-144.68 187.78,-135.61 170.96,-127.72"/>
<polygon fill="black" stroke="black" stroke-width="0.5" points="166.28,-125.53 171.77,-125.61 168.55,-126.59 170.81,-127.65 170.81,-127.65 170.81,-127.65 168.55,-126.59 169.85,-129.69 166.28,-125.53 166.28,-125.53"/>
</g>
<!-- Process failed during creation -->
<g id="node15" class="node">
<title>Process failed during creation</title>
<polygon fill="aliceblue" stroke="#800000" stroke-dasharray="5,2" points="176,-271.5 46,-271.5 46,-235.5 182,-235.5 182,-265.5 176,-271.5"/>
<polyline fill="none" stroke="#800000" stroke-dasharray="5,2" points="176,-271.5 176,-265.5 "/>
<polyline fill="none" stroke="#800000" stroke-dasharray="5,2" points="182,-265.5 176,-265.5 "/>
<text text-anchor="middle" x="114" y="-251.3" font-family="times" font-size="9.00">Process failed during creation</text>
</g>
<!-- Process failed during creation&#45;&gt;PROC_FAILED_STATE -->
<g id="edge14" class="edge">
<title>Process failed during creation&#45;&gt;PROC_FAILED_STATE</title>
<path fill="none" stroke="black" stroke-width="0.5" stroke-dasharray="5,2" d="M136.5,-235.33C152.52,-223.58 174.88,-208.18 196,-197 201.6,-194.03 207.63,-191.2 213.66,-188.58"/>
</g>
<!-- PROC_KILLING_STATE&#45;&gt;PROC_UNLOADING_STATE -->
<g id="edge20" class="edge">
<title>PROC_KILLING_STATE&#45;&gt;PROC_UNLOADING_STATE</title>
<path fill="none" stroke="black" stroke-width="0.5" d="M117.9,-89.31C111.02,-79.55 102.35,-67.23 95.03,-56.85"/>
<polygon fill="black" stroke="black" stroke-width="0.5" points="91.99,-52.53 96.71,-55.32 93.43,-54.57 94.87,-56.62 94.87,-56.62 94.87,-56.62 93.43,-54.57 93.03,-57.91 91.99,-52.53 91.99,-52.53"/>
</g>
<!-- PROC_KILLING_STATE&#45;&gt;PROC_KILLING_STATE -->
<g id="edge18" class="edge">
<title>PROC_KILLING_STATE&#45;&gt;PROC_KILLING_STATE</title>
<path fill="none" stroke="black" stroke-width="0.5" d="M185.07,-112.86C195.57,-112.21 203,-110.43 203,-107.5 203,-105.07 197.91,-103.43 190.19,-102.58"/>
<polygon fill="black" stroke="black" stroke-width="0.5" points="185.07,-102.14 190.24,-100.32 187.56,-102.35 190.06,-102.56 190.06,-102.56 190.06,-102.56 187.56,-102.35 189.87,-104.81 185.07,-102.14 185.07,-102.14"/>
<text text-anchor="middle" x="255.5" y="-105.3" font-family="times" font-size="9.00">Should cleanup resources</text>
</g>
</g>
</svg>
