<?xml version="1.0" encoding="UTF-8" standalone="no"?>
<!DOCTYPE svg PUBLIC "-//W3C//DTD SVG 1.1//EN"
 "http://www.w3.org/Graphics/SVG/1.1/DTD/svg11.dtd">
<!-- Generated by graphviz version 2.50.0 (20211204.2007)
 -->
<!-- Title: G Pages: 1 -->
<svg width="135pt" height="225pt"
 viewBox="0.00 0.00 135.00 225.00" xmlns="http://www.w3.org/2000/svg" xmlns:xlink="http://www.w3.org/1999/xlink">
<g id="graph0" class="graph" transform="scale(1 1) rotate(0) translate(4 221)">
<title>G</title>
<polygon fill="white" stroke="transparent" points="-4,4 -4,-221 131,-221 131,4 -4,4"/>
<!-- main() -->
<g id="node1" class="node">
<title>main()</title>
<path fill="#ffffbf" stroke="#800000" d="M85,-180.5C85,-180.5 115,-180.5 115,-180.5 121,-180.5 127,-186.5 127,-192.5 127,-192.5 127,-204.5 127,-204.5 127,-210.5 121,-216.5 115,-216.5 115,-216.5 85,-216.5 85,-216.5 79,-216.5 73,-210.5 73,-204.5 73,-204.5 73,-192.5 73,-192.5 73,-186.5 79,-180.5 85,-180.5"/>
<text text-anchor="middle" x="100" y="-196.3" font-family="times" font-size="9.00">main()</text>
</g>
<!-- hello() -->
<g id="node2" class="node">
<title>hello()</title>
<path fill="#ffffbf" stroke="#800000" d="M85,-135.5C85,-135.5 115,-135.5 115,-135.5 121,-135.5 127,-141.5 127,-147.5 127,-147.5 127,-159.5 127,-159.5 127,-165.5 121,-171.5 115,-171.5 115,-171.5 85,-171.5 85,-171.5 79,-171.5 73,-165.5 73,-159.5 73,-159.5 73,-147.5 73,-147.5 73,-141.5 79,-135.5 85,-135.5"/>
<text text-anchor="middle" x="100" y="-151.3" font-family="times" font-size="9.00">hello()</text>
</g>
<!-- main()&#45;&gt;hello() -->
<g id="edge1" class="edge">
<title>main()&#45;&gt;hello()</title>
<path fill="none" stroke="black" stroke-width="0.5" d="M100,-180.01C100,-178.88 100,-177.73 100,-176.58"/>
<polygon fill="black" stroke="black" stroke-width="0.5" points="100,-171.56 102.25,-176.56 100,-174.06 100,-176.56 100,-176.56 100,-176.56 100,-174.06 97.75,-176.56 100,-171.56 100,-171.56"/>
</g>
<!-- world() -->
<g id="node3" class="node">
<title>world()</title>
<path fill="#ffffbf" stroke="#800000" d="M58,-90.5C58,-90.5 88,-90.5 88,-90.5 94,-90.5 100,-96.5 100,-102.5 100,-102.5 100,-114.5 100,-114.5 100,-120.5 94,-126.5 88,-126.5 88,-126.5 58,-126.5 58,-126.5 52,-126.5 46,-120.5 46,-114.5 46,-114.5 46,-102.5 46,-102.5 46,-96.5 52,-90.5 58,-90.5"/>
<text text-anchor="middle" x="73" y="-106.3" font-family="times" font-size="9.00">world()</text>
</g>
<!-- hello()&#45;&gt;world() -->
<g id="edge2" class="edge">
<title>hello()&#45;&gt;world()</title>
<path fill="none" stroke="black" stroke-width="0.5" d="M89.02,-135.01C88.2,-133.7 87.36,-132.37 86.53,-131.05"/>
<polygon fill="black" stroke="black" stroke-width="0.5" points="83.71,-126.56 88.27,-129.59 85.04,-128.67 86.37,-130.79 86.37,-130.79 86.37,-130.79 85.04,-128.67 84.46,-131.99 83.71,-126.56 83.71,-126.56"/>
</g>
<!-- people() -->
<g id="node4" class="node">
<title>people()</title>
<path fill="#ffffbf" stroke="#800000" d="M20,-45.5C20,-45.5 50,-45.5 50,-45.5 56,-45.5 62,-51.5 62,-57.5 62,-57.5 62,-69.5 62,-69.5 62,-75.5 56,-81.5 50,-81.5 50,-81.5 20,-81.5 20,-81.5 14,-81.5 8,-75.5 8,-69.5 8,-69.5 8,-57.5 8,-57.5 8,-51.5 14,-45.5 20,-45.5"/>
<text text-anchor="middle" x="35" y="-61.3" font-family="times" font-size="9.00">people()</text>
</g>
<!-- world()&#45;&gt;people() -->
<g id="edge3" class="edge">
<title>world()&#45;&gt;people()</title>
<path fill="none" stroke="black" stroke-width="0.5" d="M57.54,-90.01C56.23,-88.53 54.9,-87.02 53.57,-85.51"/>
<polygon fill="black" stroke="black" stroke-width="0.5" points="50.07,-81.56 55.07,-83.81 51.73,-83.43 53.38,-85.3 53.38,-85.3 53.38,-85.3 51.73,-83.43 51.7,-86.79 50.07,-81.56 50.07,-81.56"/>
</g>
<!-- say() -->
<g id="node5" class="node">
<title>say()</title>
<path fill="#ffffbf" stroke="#800000" d="M12,-0.5C12,-0.5 42,-0.5 42,-0.5 48,-0.5 54,-6.5 54,-12.5 54,-12.5 54,-24.5 54,-24.5 54,-30.5 48,-36.5 42,-36.5 42,-36.5 12,-36.5 12,-36.5 6,-36.5 0,-30.5 0,-24.5 0,-24.5 0,-12.5 0,-12.5 0,-6.5 6,-0.5 12,-0.5"/>
<text text-anchor="middle" x="27" y="-16.3" font-family="times" font-size="9.00">say()</text>
</g>
<!-- people()&#45;&gt;say() -->
<g id="edge4" class="edge">
<title>people()&#45;&gt;say()</title>
<path fill="none" stroke="black" stroke-width="0.5" d="M31.75,-45.01C31.54,-43.88 31.32,-42.73 31.11,-41.58"/>
<polygon fill="black" stroke="black" stroke-width="0.5" points="30.17,-36.56 33.3,-41.06 30.63,-39.01 31.09,-41.47 31.09,-41.47 31.09,-41.47 30.63,-39.01 28.88,-41.88 30.17,-36.56 30.17,-36.56"/>
</g>
<!-- build() -->
<g id="node6" class="node">
<title>build()</title>
<path fill="#ffffbf" stroke="#800000" d="M84,-0.5C84,-0.5 114,-0.5 114,-0.5 120,-0.5 126,-6.5 126,-12.5 126,-12.5 126,-24.5 126,-24.5 126,-30.5 120,-36.5 114,-36.5 114,-36.5 84,-36.5 84,-36.5 78,-36.5 72,-30.5 72,-24.5 72,-24.5 72,-12.5 72,-12.5 72,-6.5 78,-0.5 84,-0.5"/>
<text text-anchor="middle" x="99" y="-16.3" font-family="times" font-size="9.00">build()</text>
</g>
<!-- people()&#45;&gt;build() -->
<g id="edge6" class="edge">
<title>people()&#45;&gt;build()</title>
<path fill="none" stroke="black" stroke-width="0.5" d="M60.66,-45.26C63.4,-43.42 66.2,-41.53 68.99,-39.66"/>
<polygon fill="black" stroke="black" stroke-width="0.5" points="73.33,-36.75 70.44,-41.4 71.26,-38.14 69.18,-39.53 69.18,-39.53 69.18,-39.53 71.26,-38.14 67.93,-37.67 73.33,-36.75 73.33,-36.75"/>
</g>
<!-- say()&#45;&gt;hello() -->
<g id="edge5" class="edge">
<title>say()&#45;&gt;hello()</title>
<path fill="none" stroke="black" stroke-width="0.5" d="M54.19,-33.1C74.24,-44.95 99.58,-64.26 109,-90 113.71,-102.88 111.67,-118.1 108.35,-130.3"/>
<polygon fill="black" stroke="black" stroke-width="0.5" points="106.86,-135.32 106.12,-129.89 107.57,-132.93 108.28,-130.53 108.28,-130.53 108.28,-130.53 107.57,-132.93 110.44,-131.17 106.86,-135.32 106.86,-135.32"/>
</g>
<!-- build()&#45;&gt;world() -->
<g id="edge7" class="edge">
<title>build()&#45;&gt;world()</title>
<path fill="none" stroke="black" stroke-width="0.5" d="M93.96,-36.55C89.87,-50.41 84.06,-70.07 79.59,-85.18"/>
<polygon fill="black" stroke="black" stroke-width="0.5" points="78.14,-90.11 77.4,-84.68 78.85,-87.72 79.55,-85.32 79.55,-85.32 79.55,-85.32 78.85,-87.72 81.71,-85.96 78.14,-90.11 78.14,-90.11"/>
</g>
</g>
</svg>
