<?xml version="1.0" encoding="UTF-8" standalone="no"?>
<!DOCTYPE svg PUBLIC "-//W3C//DTD SVG 1.1//EN"
 "http://www.w3.org/Graphics/SVG/1.1/DTD/svg11.dtd">
<!-- Generated by graphviz version 2.38.0 (20140413.2041)
 -->
<!-- Title: G Pages: 1 -->
<svg width="341pt" height="665pt"
 viewBox="0.00 0.00 341.44 665.44" xmlns="http://www.w3.org/2000/svg" xmlns:xlink="http://www.w3.org/1999/xlink">
<g id="graph0" class="graph" transform="scale(1 1) rotate(0) translate(0.72 664.72)">
<title>G</title>
<polygon fill="white" stroke="none" points="-0.72,0.72 -0.72,-664.72 340.72,-664.72 340.72,0.72 -0.72,0.72"/>
<g id="clust1" class="cluster"><title>cluster_Alice</title>
<polygon fill="white" stroke="black" points="8,-237 8,-656 78,-656 78,-237 8,-237"/>
<text text-anchor="middle" x="43" y="-640" font-family="Consolas:bold" font-size="15.00">Alice</text>
</g>
<g id="clust2" class="cluster"><title>cluster_John</title>
<polygon fill="white" stroke="black" points="86,-8 86,-550 254,-550 254,-8 86,-8"/>
<text text-anchor="middle" x="170" y="-534" font-family="Consolas:bold" font-size="15.00">John</text>
</g>
<g id="clust3" class="cluster"><title>cluster_Bob</title>
<polygon fill="white" stroke="black" points="262,-79 262,-211 332,-211 332,-79 262,-79"/>
<text text-anchor="middle" x="297" y="-195" font-family="Consolas:bold" font-size="15.00">Bob</text>
</g>
<!-- 1.send -->
<g id="node1" class="node"><title>1.send</title>
<path fill="#ffffbf" stroke="#800000" d="M28,-586.5C28,-586.5 58,-586.5 58,-586.5 64,-586.5 70,-592.5 70,-598.5 70,-598.5 70,-610.5 70,-610.5 70,-616.5 64,-622.5 58,-622.5 58,-622.5 28,-622.5 28,-622.5 22,-622.5 16,-616.5 16,-610.5 16,-610.5 16,-598.5 16,-598.5 16,-592.5 22,-586.5 28,-586.5"/>
<text text-anchor="middle" x="43" y="-602.3" font-family="Consolas" font-size="9.00">1.send</text>
</g>
<!-- 3.got -->
<g id="node2" class="node"><title>3.got</title>
<path fill="#ffffbf" stroke="#800000" d="M28,-245.5C28,-245.5 58,-245.5 58,-245.5 64,-245.5 70,-251.5 70,-257.5 70,-257.5 70,-269.5 70,-269.5 70,-275.5 64,-281.5 58,-281.5 58,-281.5 28,-281.5 28,-281.5 22,-281.5 16,-275.5 16,-269.5 16,-269.5 16,-257.5 16,-257.5 16,-251.5 22,-245.5 28,-245.5"/>
<text text-anchor="middle" x="43" y="-261.3" font-family="Consolas" font-size="9.00">3.got</text>
</g>
<!-- 1.send&#45;&gt;3.got -->
<g id="edge1" class="edge"><title>1.send&#45;&gt;3.got</title>
<path fill="none" stroke="black" stroke-width="0.5" d="M29.5,-586.166C29.5,-526.819 29.5,-340.394 29.5,-281.51"/>
</g>
<!-- 1.got -->
<g id="node3" class="node"><title>1.got</title>
<path fill="#ffffbf" stroke="#800000" d="M126,-480.5C126,-480.5 156,-480.5 156,-480.5 162,-480.5 168,-486.5 168,-492.5 168,-492.5 168,-504.5 168,-504.5 168,-510.5 162,-516.5 156,-516.5 156,-516.5 126,-516.5 126,-516.5 120,-516.5 114,-510.5 114,-504.5 114,-504.5 114,-492.5 114,-492.5 114,-486.5 120,-480.5 126,-480.5"/>
<text text-anchor="middle" x="141" y="-496.3" font-family="Consolas" font-size="9.00">1.got</text>
</g>
<!-- 1.send&#45;&gt;1.got -->
<g id="edge9" class="edge"><title>1.send&#45;&gt;1.got</title>
<path fill="none" stroke="black" stroke-width="0.5" d="M43,-586.434C43,-556.049 43,-498 43,-498 43,-498 108.962,-498 108.962,-498"/>
<polygon fill="black" stroke="black" stroke-width="0.5" points="113.962,-498 108.962,-500.25 111.462,-498 108.962,-498 108.962,-498 108.962,-498 111.462,-498 108.962,-495.75 113.962,-498 113.962,-498"/>
<text text-anchor="middle" x="133" y="-570.8" font-family="Consolas" font-size="9.00">Hello John,</text>
<text text-anchor="middle" x="133" y="-560.8" font-family="Consolas" font-size="9.00"> how are you!</text>
</g>
<!-- [Healthcheck](loop) -->
<g id="node4" class="node"><title>[Healthcheck](loop)</title>
<path fill="#ffffbf" stroke="#800000" d="M106,-416.5C106,-416.5 216,-416.5 216,-416.5 222,-416.5 228,-422.5 228,-428.5 228,-428.5 228,-450.5 228,-450.5 228,-456.5 222,-462.5 216,-462.5 216,-462.5 106,-462.5 106,-462.5 100,-462.5 94,-456.5 94,-450.5 94,-450.5 94,-428.5 94,-428.5 94,-422.5 100,-416.5 106,-416.5"/>
<text text-anchor="middle" x="161" y="-451.3" font-family="Consolas" font-size="9.00">[Healthcheck](loop)</text>
<polyline fill="none" stroke="#800000" points="94,-444.5 228,-444.5 "/>
<text text-anchor="middle" x="161" y="-433.3" font-family="Consolas" font-size="9.00">2.</text>
<text text-anchor="middle" x="161" y="-423.3" font-family="Consolas" font-size="9.00"> Fight against hypochondria</text>
</g>
<!-- 1.got&#45;&gt;[Healthcheck](loop) -->
<g id="edge2" class="edge"><title>1.got&#45;&gt;[Healthcheck](loop)</title>
<path fill="none" stroke="black" stroke-width="0.5" d="M141,-480.477C141,-474.92 141,-468.718 141,-462.855"/>
</g>
<!-- [Healthcheck](loop)&#45;&gt;[Healthcheck](loop) -->
<g id="edge3" class="edge"><title>[Healthcheck](loop)&#45;&gt;[Healthcheck](loop)</title>
<path fill="none" stroke="black" stroke-width="0.5" d="M104,-462.724C104,-467.445 104,-471 104,-471 104,-471 82,-471 82,-471 82,-471 82,-407 82,-407 82,-407 140.667,-407 140.667,-407 140.667,-407 140.667,-411.226 140.667,-411.226"/>
<polygon fill="black" stroke="black" stroke-width="0.5" points="140.667,-416.226 138.417,-411.226 140.667,-413.726 140.667,-411.226 140.667,-411.226 140.667,-411.226 140.667,-413.726 142.917,-411.226 140.667,-416.226 140.667,-416.226"/>
</g>
<!-- Rational thoughts! -->
<g id="node5" class="node"><title>Rational thoughts!</title>
<path fill="darkgoldenrod" stroke="#800000" stroke-width="2" d="M112,-362.5C112,-362.5 210,-362.5 210,-362.5 216,-362.5 222,-368.5 222,-374.5 222,-374.5 222,-386.5 222,-386.5 222,-392.5 216,-398.5 210,-398.5 210,-398.5 112,-398.5 112,-398.5 106,-398.5 100,-392.5 100,-386.5 100,-386.5 100,-374.5 100,-374.5 100,-368.5 106,-362.5 112,-362.5"/>
<text text-anchor="middle" x="161" y="-377.4" font-family="Consolas" font-size="12.00" fill="white">Rational thoughts!</text>
</g>
<!-- [Healthcheck](loop)&#45;&gt;Rational thoughts! -->
<g id="edge4" class="edge"><title>[Healthcheck](loop)&#45;&gt;Rational thoughts!</title>
<path fill="none" stroke="darkgoldenrod" d="M181.333,-416.182C181.333,-410.384 181.333,-404.253 181.333,-398.739"/>
</g>
<!-- 3.send -->
<g id="node6" class="node"><title>3.send</title>
<path fill="#ffffbf" stroke="#800000" d="M146,-308.5C146,-308.5 176,-308.5 176,-308.5 182,-308.5 188,-314.5 188,-320.5 188,-320.5 188,-332.5 188,-332.5 188,-338.5 182,-344.5 176,-344.5 176,-344.5 146,-344.5 146,-344.5 140,-344.5 134,-338.5 134,-332.5 134,-332.5 134,-320.5 134,-320.5 134,-314.5 140,-308.5 146,-308.5"/>
<text text-anchor="middle" x="161" y="-324.3" font-family="Consolas" font-size="9.00">3.send</text>
</g>
<!-- Rational thoughts!&#45;&gt;3.send -->
<g id="edge5" class="edge"><title>Rational thoughts!&#45;&gt;3.send</title>
<path fill="none" stroke="black" stroke-width="0.5" d="M161,-362.218C161,-356.588 161,-350.392 161,-344.763"/>
</g>
<!-- 3.send&#45;&gt;3.got -->
<g id="edge10" class="edge"><title>3.send&#45;&gt;3.got</title>
<path fill="none" stroke="black" stroke-width="0.5" stroke-dasharray="5,2" d="M133.817,-326C102.854,-326 56.5,-326 56.5,-326 56.5,-326 56.5,-286.578 56.5,-286.578"/>
<polygon fill="black" stroke="black" stroke-width="0.5" points="56.5,-281.578 58.7501,-286.578 56.5,-284.078 56.5001,-286.578 56.5001,-286.578 56.5001,-286.578 56.5,-284.078 54.2501,-286.578 56.5,-281.578 56.5,-281.578"/>
<text text-anchor="middle" x="125" y="-292.8" font-family="Consolas" font-size="9.00">Great!</text>
</g>
<!-- 4.send -->
<g id="node7" class="node"><title>4.send</title>
<path fill="#ffffbf" stroke="#800000" d="M204,-245.5C204,-245.5 234,-245.5 234,-245.5 240,-245.5 246,-251.5 246,-257.5 246,-257.5 246,-269.5 246,-269.5 246,-275.5 240,-281.5 234,-281.5 234,-281.5 204,-281.5 204,-281.5 198,-281.5 192,-275.5 192,-269.5 192,-269.5 192,-257.5 192,-257.5 192,-251.5 198,-245.5 204,-245.5"/>
<text text-anchor="middle" x="219" y="-261.3" font-family="Consolas" font-size="9.00">4.send</text>
</g>
<!-- 3.send&#45;&gt;4.send -->
<g id="edge6" class="edge"><title>3.send&#45;&gt;4.send</title>
<path fill="none" stroke="black" stroke-width="0.5" d="M188.024,-326C198.037,-326 207,-326 207,-326 207,-326 207,-300.036 207,-281.578"/>
</g>
<!-- 5.got -->
<g id="node8" class="node"><title>5.got</title>
<path fill="#ffffbf" stroke="#800000" d="M204,-16.5C204,-16.5 234,-16.5 234,-16.5 240,-16.5 246,-22.5 246,-28.5 246,-28.5 246,-40.5 246,-40.5 246,-46.5 240,-52.5 234,-52.5 234,-52.5 204,-52.5 204,-52.5 198,-52.5 192,-46.5 192,-40.5 192,-40.5 192,-28.5 192,-28.5 192,-22.5 198,-16.5 204,-16.5"/>
<text text-anchor="middle" x="219" y="-32.3" font-family="Consolas" font-size="9.00">5.got</text>
</g>
<!-- 4.send&#45;&gt;5.got -->
<g id="edge7" class="edge"><title>4.send&#45;&gt;5.got</title>
<path fill="none" stroke="black" stroke-width="0.5" d="M219,-245.147C219,-202.163 219,-95.3778 219,-52.6225"/>
</g>
<!-- 4.got -->
<g id="node9" class="node"><title>4.got</title>
<path fill="#ffffbf" stroke="#800000" d="M282,-141.5C282,-141.5 312,-141.5 312,-141.5 318,-141.5 324,-147.5 324,-153.5 324,-153.5 324,-165.5 324,-165.5 324,-171.5 318,-177.5 312,-177.5 312,-177.5 282,-177.5 282,-177.5 276,-177.5 270,-171.5 270,-165.5 270,-165.5 270,-153.5 270,-153.5 270,-147.5 276,-141.5 282,-141.5"/>
<text text-anchor="middle" x="297" y="-157.3" font-family="Consolas" font-size="9.00">4.got</text>
</g>
<!-- 4.send&#45;&gt;4.got -->
<g id="edge11" class="edge"><title>4.send&#45;&gt;4.got</title>
<path fill="none" stroke="black" stroke-width="0.5" d="M246.281,-263C268.774,-263 297,-263 297,-263 297,-263 297,-182.528 297,-182.528"/>
<polygon fill="black" stroke="black" stroke-width="0.5" points="297,-177.528 299.25,-182.528 297,-180.028 297,-182.528 297,-182.528 297,-182.528 297,-180.028 294.75,-182.528 297,-177.528 297,-177.528"/>
<text text-anchor="middle" x="304.5" y="-221.8" font-family="Consolas" font-size="9.00">How about you?</text>
</g>
<!-- 5.send -->
<g id="node10" class="node"><title>5.send</title>
<path fill="#ffffbf" stroke="#800000" d="M282,-87.5C282,-87.5 312,-87.5 312,-87.5 318,-87.5 324,-93.5 324,-99.5 324,-99.5 324,-111.5 324,-111.5 324,-117.5 318,-123.5 312,-123.5 312,-123.5 282,-123.5 282,-123.5 276,-123.5 270,-117.5 270,-111.5 270,-111.5 270,-99.5 270,-99.5 270,-93.5 276,-87.5 282,-87.5"/>
<text text-anchor="middle" x="297" y="-103.3" font-family="Consolas" font-size="9.00">5.send</text>
</g>
<!-- 4.got&#45;&gt;5.send -->
<g id="edge8" class="edge"><title>4.got&#45;&gt;5.send</title>
<path fill="none" stroke="black" stroke-width="0.5" d="M297,-141.218C297,-135.588 297,-129.392 297,-123.763"/>
</g>
<!-- 5.send&#45;&gt;5.got -->
<g id="edge12" class="edge"><title>5.send&#45;&gt;5.got</title>
<path fill="none" stroke="black" stroke-width="0.5" stroke-dasharray="5,2" d="M297,-87.4575C297,-66.2762 297,-34 297,-34 297,-34 251.281,-34 251.281,-34"/>
<polygon fill="black" stroke="black" stroke-width="0.5" points="246.281,-34 251.281,-31.7501 248.781,-34 251.281,-34.0001 251.281,-34.0001 251.281,-34.0001 248.781,-34 251.281,-36.2501 246.281,-34 246.281,-34"/>
<text text-anchor="middle" x="293" y="-63.8" font-family="Consolas" font-size="9.00">Jolly good!</text>
</g>
</g>
</svg>
