<?xml version="1.0" encoding="UTF-8" standalone="no"?>
<!DOCTYPE svg PUBLIC "-//W3C//DTD SVG 1.1//EN"
 "http://www.w3.org/Graphics/SVG/1.1/DTD/svg11.dtd">
<!-- Generated by graphviz version 2.38.0 (20140413.2041)
 -->
<!-- Title: G Pages: 1 -->
<svg width="541pt" height="1177pt"
 viewBox="0.00 0.00 541.44 1177.44" xmlns="http://www.w3.org/2000/svg" xmlns:xlink="http://www.w3.org/1999/xlink">
<g id="graph0" class="graph" transform="scale(1 1) rotate(0) translate(0.72 1176.72)">
<title>G</title>
<polygon fill="white" stroke="none" points="-0.72,0.72 -0.72,-1176.72 540.72,-1176.72 540.72,0.72 -0.72,0.72"/>
<!-- sched_core_fork() -->
<g id="node1" class="node"><title>sched_core_fork()</title>
<path fill="#ffffbf" stroke="#800000" d="M24.5,-1111.5C24.5,-1111.5 94.5,-1111.5 94.5,-1111.5 100.5,-1111.5 106.5,-1117.5 106.5,-1123.5 106.5,-1123.5 106.5,-1135.5 106.5,-1135.5 106.5,-1141.5 100.5,-1147.5 94.5,-1147.5 94.5,-1147.5 24.5,-1147.5 24.5,-1147.5 18.5,-1147.5 12.5,-1141.5 12.5,-1135.5 12.5,-1135.5 12.5,-1123.5 12.5,-1123.5 12.5,-1117.5 18.5,-1111.5 24.5,-1111.5"/>
<text text-anchor="middle" x="59.5" y="-1127.3" font-family="Consolas" font-size="9.00">sched_core_fork()</text>
</g>
<!-- RB_CLEAR_NODE() -->
<g id="node2" class="node"><title>RB_CLEAR_NODE()</title>
<path fill="#ffffbf" stroke="#800000" d="M156,-1139.5C156,-1139.5 230,-1139.5 230,-1139.5 236,-1139.5 242,-1145.5 242,-1151.5 242,-1151.5 242,-1163.5 242,-1163.5 242,-1169.5 236,-1175.5 230,-1175.5 230,-1175.5 156,-1175.5 156,-1175.5 150,-1175.5 144,-1169.5 144,-1163.5 144,-1163.5 144,-1151.5 144,-1151.5 144,-1145.5 150,-1139.5 156,-1139.5"/>
<text text-anchor="middle" x="193" y="-1155.3" font-family="Consolas" font-size="9.00">RB_CLEAR_NODE()</text>
</g>
<!-- sched_core_fork()&#45;&gt;RB_CLEAR_NODE() -->
<g id="edge1" class="edge"><title>sched_core_fork()&#45;&gt;RB_CLEAR_NODE()</title>
<path fill="none" stroke="black" stroke-width="0.5" d="M106.862,-1139.37C117.156,-1141.56 128.147,-1143.9 138.695,-1146.15"/>
<polygon fill="black" stroke="black" stroke-width="0.5" points="143.832,-1147.24 138.473,-1148.4 141.387,-1146.72 138.942,-1146.2 138.942,-1146.2 138.942,-1146.2 141.387,-1146.72 139.41,-1144 143.832,-1147.24 143.832,-1147.24"/>
</g>
<!-- sched_core_clone_cookie() -->
<g id="node3" class="node"><title>sched_core_clone_cookie()</title>
<path fill="#ffffbf" stroke="#800000" d="M139,-1084.5C139,-1084.5 247,-1084.5 247,-1084.5 253,-1084.5 259,-1090.5 259,-1096.5 259,-1096.5 259,-1108.5 259,-1108.5 259,-1114.5 253,-1120.5 247,-1120.5 247,-1120.5 139,-1120.5 139,-1120.5 133,-1120.5 127,-1114.5 127,-1108.5 127,-1108.5 127,-1096.5 127,-1096.5 127,-1090.5 133,-1084.5 139,-1084.5"/>
<text text-anchor="middle" x="193" y="-1100.3" font-family="Consolas" font-size="9.00">sched_core_clone_cookie()</text>
</g>
<!-- sched_core_fork()&#45;&gt;sched_core_clone_cookie() -->
<g id="edge2" class="edge"><title>sched_core_fork()&#45;&gt;sched_core_clone_cookie()</title>
<path fill="none" stroke="black" stroke-width="0.5" d="M106.862,-1119.98C111.742,-1118.98 116.779,-1117.94 121.851,-1116.9"/>
<polygon fill="black" stroke="black" stroke-width="0.5" points="126.93,-1115.86 122.485,-1119.07 124.481,-1116.36 122.032,-1116.87 122.032,-1116.87 122.032,-1116.87 124.481,-1116.36 121.58,-1114.66 126.93,-1115.86 126.93,-1115.86"/>
</g>
<!-- raw_spin_lock_irqsave() -->
<g id="node4" class="node"><title>raw_spin_lock_irqsave()</title>
<path fill="#ffffbf" stroke="#800000" d="M290.5,-1111.5C290.5,-1111.5 386.5,-1111.5 386.5,-1111.5 392.5,-1111.5 398.5,-1117.5 398.5,-1123.5 398.5,-1123.5 398.5,-1135.5 398.5,-1135.5 398.5,-1141.5 392.5,-1147.5 386.5,-1147.5 386.5,-1147.5 290.5,-1147.5 290.5,-1147.5 284.5,-1147.5 278.5,-1141.5 278.5,-1135.5 278.5,-1135.5 278.5,-1123.5 278.5,-1123.5 278.5,-1117.5 284.5,-1111.5 290.5,-1111.5"/>
<text text-anchor="middle" x="338.5" y="-1127.3" font-family="Consolas" font-size="9.00">raw_spin_lock_irqsave()</text>
</g>
<!-- sched_core_clone_cookie()&#45;&gt;raw_spin_lock_irqsave() -->
<g id="edge3" class="edge"><title>sched_core_clone_cookie()&#45;&gt;raw_spin_lock_irqsave()</title>
<path fill="none" stroke="black" stroke-width="0.5" d="M259.032,-1114.74C263.716,-1115.62 268.438,-1116.51 273.117,-1117.39"/>
<polygon fill="black" stroke="black" stroke-width="0.5" points="278.175,-1118.34 272.845,-1119.62 275.718,-1117.88 273.261,-1117.41 273.261,-1117.41 273.261,-1117.41 275.718,-1117.88 273.677,-1115.2 278.175,-1118.34 278.175,-1118.34"/>
</g>
<!-- sched_core_get_cookie() -->
<g id="node5" class="node"><title>sched_core_get_cookie()</title>
<path fill="#ffffbf" stroke="#800000" d="M288.5,-891.5C288.5,-891.5 388.5,-891.5 388.5,-891.5 394.5,-891.5 400.5,-897.5 400.5,-903.5 400.5,-903.5 400.5,-915.5 400.5,-915.5 400.5,-921.5 394.5,-927.5 388.5,-927.5 388.5,-927.5 288.5,-927.5 288.5,-927.5 282.5,-927.5 276.5,-921.5 276.5,-915.5 276.5,-915.5 276.5,-903.5 276.5,-903.5 276.5,-897.5 282.5,-891.5 288.5,-891.5"/>
<text text-anchor="middle" x="338.5" y="-907.3" font-family="Consolas" font-size="9.00">sched_core_get_cookie()</text>
</g>
<!-- sched_core_clone_cookie()&#45;&gt;sched_core_get_cookie() -->
<g id="edge4" class="edge"><title>sched_core_clone_cookie()&#45;&gt;sched_core_get_cookie()</title>
<path fill="none" stroke="black" stroke-width="0.5" d="M248.717,-1084.44C252.497,-1081.84 255.993,-1078.88 259,-1075.5 267.609,-1065.84 262.256,-1059.54 267,-1047.5 283.594,-1005.38 308.832,-959.011 324.181,-932.175"/>
<polygon fill="black" stroke="black" stroke-width="0.5" points="326.743,-927.718 326.202,-933.174 325.497,-929.885 324.251,-932.053 324.251,-932.053 324.251,-932.053 325.497,-929.885 322.3,-930.932 326.743,-927.718 326.743,-927.718"/>
</g>
<!-- raw_spin_unlock_irqrestore() -->
<g id="node7" class="node"><title>raw_spin_unlock_irqrestore()</title>
<path fill="#ffffbf" stroke="#800000" d="M279,-1056.5C279,-1056.5 398,-1056.5 398,-1056.5 404,-1056.5 410,-1062.5 410,-1068.5 410,-1068.5 410,-1080.5 410,-1080.5 410,-1086.5 404,-1092.5 398,-1092.5 398,-1092.5 279,-1092.5 279,-1092.5 273,-1092.5 267,-1086.5 267,-1080.5 267,-1080.5 267,-1068.5 267,-1068.5 267,-1062.5 273,-1056.5 279,-1056.5"/>
<text text-anchor="middle" x="338.5" y="-1072.3" font-family="Consolas" font-size="9.00">raw_spin_unlock_irqrestore()</text>
</g>
<!-- sched_core_clone_cookie()&#45;&gt;raw_spin_unlock_irqrestore() -->
<g id="edge6" class="edge"><title>sched_core_clone_cookie()&#45;&gt;raw_spin_unlock_irqrestore()</title>
<path fill="none" stroke="black" stroke-width="0.5" d="M259.032,-1089.81C259.82,-1089.66 260.609,-1089.5 261.399,-1089.35"/>
<polygon fill="black" stroke="black" stroke-width="0.5" points="266.617,-1088.33 262.141,-1091.5 264.163,-1088.81 261.71,-1089.29 261.71,-1089.29 261.71,-1089.29 264.163,-1088.81 261.279,-1087.08 266.617,-1088.33 266.617,-1088.33"/>
</g>
<!-- refcount_inc() -->
<g id="node6" class="node"><title>refcount_inc()</title>
<path fill="#ffffbf" stroke="#800000" d="M453,-891.5C453,-891.5 505,-891.5 505,-891.5 511,-891.5 517,-897.5 517,-903.5 517,-903.5 517,-915.5 517,-915.5 517,-921.5 511,-927.5 505,-927.5 505,-927.5 453,-927.5 453,-927.5 447,-927.5 441,-921.5 441,-915.5 441,-915.5 441,-903.5 441,-903.5 441,-897.5 447,-891.5 453,-891.5"/>
<text text-anchor="middle" x="479" y="-907.3" font-family="Consolas" font-size="9.00">refcount_inc()</text>
</g>
<!-- sched_core_get_cookie()&#45;&gt;refcount_inc() -->
<g id="edge5" class="edge"><title>sched_core_get_cookie()&#45;&gt;refcount_inc()</title>
<path fill="none" stroke="black" stroke-width="0.5" d="M400.651,-909.5C412.359,-909.5 424.38,-909.5 435.35,-909.5"/>
<polygon fill="black" stroke="black" stroke-width="0.5" points="440.645,-909.5 435.645,-911.75 438.145,-909.5 435.645,-909.5 435.645,-909.5 435.645,-909.5 438.145,-909.5 435.645,-907.25 440.645,-909.5 440.645,-909.5"/>
</g>
<!-- sched_core_free() -->
<g id="node8" class="node"><title>sched_core_free()</title>
<path fill="#ffffbf" stroke="#800000" d="M158,-974.5C158,-974.5 228,-974.5 228,-974.5 234,-974.5 240,-980.5 240,-986.5 240,-986.5 240,-998.5 240,-998.5 240,-1004.5 234,-1010.5 228,-1010.5 228,-1010.5 158,-1010.5 158,-1010.5 152,-1010.5 146,-1004.5 146,-998.5 146,-998.5 146,-986.5 146,-986.5 146,-980.5 152,-974.5 158,-974.5"/>
<text text-anchor="middle" x="193" y="-990.3" font-family="Consolas" font-size="9.00">sched_core_free()</text>
</g>
<!-- sched_core_put_cookie() -->
<g id="node9" class="node"><title>sched_core_put_cookie()</title>
<path fill="#ffffbf" stroke="#800000" d="M288.5,-712.5C288.5,-712.5 388.5,-712.5 388.5,-712.5 394.5,-712.5 400.5,-718.5 400.5,-724.5 400.5,-724.5 400.5,-736.5 400.5,-736.5 400.5,-742.5 394.5,-748.5 388.5,-748.5 388.5,-748.5 288.5,-748.5 288.5,-748.5 282.5,-748.5 276.5,-742.5 276.5,-736.5 276.5,-736.5 276.5,-724.5 276.5,-724.5 276.5,-718.5 282.5,-712.5 288.5,-712.5"/>
<text text-anchor="middle" x="338.5" y="-728.3" font-family="Consolas" font-size="9.00">sched_core_put_cookie()</text>
</g>
<!-- sched_core_free()&#45;&gt;sched_core_put_cookie() -->
<g id="edge7" class="edge"><title>sched_core_free()&#45;&gt;sched_core_put_cookie()</title>
<path fill="none" stroke="black" stroke-width="0.5" d="M240.042,-980.127C247.386,-976.24 254.149,-971.152 259,-964.5 269.918,-949.528 262.121,-899.376 267,-881.5 280.088,-833.547 307.363,-781.947 323.887,-753.194"/>
<polygon fill="black" stroke="black" stroke-width="0.5" points="326.443,-748.779 325.885,-754.234 325.19,-750.943 323.937,-753.106 323.937,-753.106 323.937,-753.106 325.19,-750.943 321.99,-751.979 326.443,-748.779 326.443,-748.779"/>
</g>
<!-- refcount_dec_and_test() -->
<g id="node10" class="node"><title>refcount_dec_and_test()</title>
<path fill="#ffffbf" stroke="#800000" d="M430,-684.5C430,-684.5 528,-684.5 528,-684.5 534,-684.5 540,-690.5 540,-696.5 540,-696.5 540,-708.5 540,-708.5 540,-714.5 534,-720.5 528,-720.5 528,-720.5 430,-720.5 430,-720.5 424,-720.5 418,-714.5 418,-708.5 418,-708.5 418,-696.5 418,-696.5 418,-690.5 424,-684.5 430,-684.5"/>
<text text-anchor="middle" x="479" y="-700.3" font-family="Consolas" font-size="9.00">refcount_dec_and_test()</text>
</g>
<!-- sched_core_put_cookie()&#45;&gt;refcount_dec_and_test() -->
<g id="edge8" class="edge"><title>sched_core_put_cookie()&#45;&gt;refcount_dec_and_test()</title>
<path fill="none" stroke="black" stroke-width="0.5" d="M400.651,-718.137C404.626,-717.334 408.636,-716.523 412.629,-715.716"/>
<polygon fill="black" stroke="black" stroke-width="0.5" points="417.674,-714.696 413.219,-717.892 415.223,-715.191 412.773,-715.687 412.773,-715.687 412.773,-715.687 415.223,-715.191 412.327,-713.481 417.674,-714.696 417.674,-714.696"/>
</g>
<!-- kfree() -->
<g id="node11" class="node"><title>kfree()</title>
<path fill="#ffffbf" stroke="#800000" d="M464,-794.5C464,-794.5 494,-794.5 494,-794.5 500,-794.5 506,-800.5 506,-806.5 506,-806.5 506,-818.5 506,-818.5 506,-824.5 500,-830.5 494,-830.5 494,-830.5 464,-830.5 464,-830.5 458,-830.5 452,-824.5 452,-818.5 452,-818.5 452,-806.5 452,-806.5 452,-800.5 458,-794.5 464,-794.5"/>
<text text-anchor="middle" x="479" y="-810.3" font-family="Consolas" font-size="9.00">kfree()</text>
</g>
<!-- sched_core_put_cookie()&#45;&gt;kfree() -->
<g id="edge9" class="edge"><title>sched_core_put_cookie()&#45;&gt;kfree()</title>
<path fill="none" stroke="black" stroke-width="0.5" d="M363.57,-748.604C378.768,-759.64 399.047,-773.658 418,-784.5 427.261,-789.797 437.693,-794.934 447.23,-799.33"/>
<polygon fill="black" stroke="black" stroke-width="0.5" points="451.831,-801.426 446.348,-801.401 449.556,-800.39 447.281,-799.353 447.281,-799.353 447.281,-799.353 449.556,-800.39 448.214,-797.306 451.831,-801.426 451.831,-801.426"/>
</g>
<!-- sched_core_put() -->
<g id="node12" class="node"><title>sched_core_put()</title>
<path fill="#ffffbf" stroke="#800000" d="M445.5,-739.5C445.5,-739.5 512.5,-739.5 512.5,-739.5 518.5,-739.5 524.5,-745.5 524.5,-751.5 524.5,-751.5 524.5,-763.5 524.5,-763.5 524.5,-769.5 518.5,-775.5 512.5,-775.5 512.5,-775.5 445.5,-775.5 445.5,-775.5 439.5,-775.5 433.5,-769.5 433.5,-763.5 433.5,-763.5 433.5,-751.5 433.5,-751.5 433.5,-745.5 439.5,-739.5 445.5,-739.5"/>
<text text-anchor="middle" x="479" y="-755.3" font-family="Consolas" font-size="9.00">sched_core_put()</text>
</g>
<!-- sched_core_put_cookie()&#45;&gt;sched_core_put() -->
<g id="edge10" class="edge"><title>sched_core_put_cookie()&#45;&gt;sched_core_put()</title>
<path fill="none" stroke="black" stroke-width="0.5" d="M400.651,-742.421C409.945,-744.233 419.436,-746.083 428.442,-747.839"/>
<polygon fill="black" stroke="black" stroke-width="0.5" points="433.391,-748.804 428.053,-750.055 430.938,-748.325 428.484,-747.847 428.484,-747.847 428.484,-747.847 430.938,-748.325 428.914,-745.639 433.391,-748.804 433.391,-748.804"/>
</g>
<!-- sched_core_share_pid() -->
<g id="node13" class="node"><title>sched_core_share_pid()</title>
<path fill="#ffffbf" stroke="#800000" d="M12,-550.5C12,-550.5 107,-550.5 107,-550.5 113,-550.5 119,-556.5 119,-562.5 119,-562.5 119,-574.5 119,-574.5 119,-580.5 113,-586.5 107,-586.5 107,-586.5 12,-586.5 12,-586.5 6,-586.5 0,-580.5 0,-574.5 0,-574.5 0,-562.5 0,-562.5 0,-556.5 6,-550.5 12,-550.5"/>
<text text-anchor="middle" x="59.5" y="-566.3" font-family="Consolas" font-size="9.00">sched_core_share_pid()</text>
</g>
<!-- sched_core_share_pid()&#45;&gt;sched_core_clone_cookie() -->
<g id="edge18" class="edge"><title>sched_core_share_pid()&#45;&gt;sched_core_clone_cookie()</title>
<path fill="none" stroke="black" stroke-width="0.5" d="M60.5229,-586.585C60.9686,-667.597 66.5306,-996.574 127,-1075.5 128.544,-1077.52 130.266,-1079.38 132.127,-1081.11"/>
<polygon fill="black" stroke="black" stroke-width="0.5" points="136.128,-1084.47 130.851,-1082.98 134.213,-1082.86 132.297,-1081.25 132.297,-1081.25 132.297,-1081.25 134.213,-1082.86 133.743,-1079.53 136.128,-1084.47 136.128,-1084.47"/>
</g>
<!-- sched_core_share_pid()&#45;&gt;sched_core_put_cookie() -->
<g id="edge43" class="edge"><title>sched_core_share_pid()&#45;&gt;sched_core_put_cookie()</title>
<path fill="none" stroke="black" stroke-width="0.5" d="M103.191,-586.554C111.057,-589.675 119.237,-592.785 127,-595.5 184.743,-615.698 208.043,-600.653 259,-634.5 287.463,-653.406 310.806,-685.768 324.437,-707.635"/>
<polygon fill="black" stroke="black" stroke-width="0.5" points="327.197,-712.133 322.664,-709.048 325.889,-710.002 324.582,-707.871 324.582,-707.871 324.582,-707.871 325.889,-710.002 326.5,-706.695 327.197,-712.133 327.197,-712.133"/>
</g>
<!-- static_branch_likely() -->
<g id="node14" class="node"><title>static_branch_likely()</title>
<path fill="#ffffbf" stroke="#800000" d="M151,-550.5C151,-550.5 235,-550.5 235,-550.5 241,-550.5 247,-556.5 247,-562.5 247,-562.5 247,-574.5 247,-574.5 247,-580.5 241,-586.5 235,-586.5 235,-586.5 151,-586.5 151,-586.5 145,-586.5 139,-580.5 139,-574.5 139,-574.5 139,-562.5 139,-562.5 139,-556.5 145,-550.5 151,-550.5"/>
<text text-anchor="middle" x="193" y="-566.3" font-family="Consolas" font-size="9.00">static_branch_likely()</text>
</g>
<!-- sched_core_share_pid()&#45;&gt;static_branch_likely() -->
<g id="edge11" class="edge"><title>sched_core_share_pid()&#45;&gt;static_branch_likely()</title>
<path fill="none" stroke="black" stroke-width="0.5" d="M119.327,-568.5C124.047,-568.5 128.816,-568.5 133.534,-568.5"/>
<polygon fill="black" stroke="black" stroke-width="0.5" points="138.629,-568.5 133.629,-570.75 136.129,-568.5 133.629,-568.5 133.629,-568.5 133.629,-568.5 136.129,-568.5 133.629,-566.25 138.629,-568.5 138.629,-568.5"/>
</g>
<!-- BUILD_BUG_ON() -->
<g id="node15" class="node"><title>BUILD_BUG_ON()</title>
<path fill="#ffffbf" stroke="#800000" d="M159,-495.5C159,-495.5 227,-495.5 227,-495.5 233,-495.5 239,-501.5 239,-507.5 239,-507.5 239,-519.5 239,-519.5 239,-525.5 233,-531.5 227,-531.5 227,-531.5 159,-531.5 159,-531.5 153,-531.5 147,-525.5 147,-519.5 147,-519.5 147,-507.5 147,-507.5 147,-501.5 153,-495.5 159,-495.5"/>
<text text-anchor="middle" x="193" y="-511.3" font-family="Consolas" font-size="9.00">BUILD_BUG_ON()</text>
</g>
<!-- sched_core_share_pid()&#45;&gt;BUILD_BUG_ON() -->
<g id="edge12" class="edge"><title>sched_core_share_pid()&#45;&gt;BUILD_BUG_ON()</title>
<path fill="none" stroke="black" stroke-width="0.5" d="M103.414,-550.395C111.258,-547.096 119.372,-543.69 127,-540.5 132.372,-538.253 137.997,-535.907 143.594,-533.577"/>
<polygon fill="black" stroke="black" stroke-width="0.5" points="148.283,-531.626 144.531,-535.624 145.975,-532.586 143.667,-533.547 143.667,-533.547 143.667,-533.547 145.975,-532.586 142.802,-531.469 148.283,-531.626 148.283,-531.626"/>
</g>
<!-- rcu_read_lock() -->
<g id="node16" class="node"><title>rcu_read_lock()</title>
<path fill="#ffffbf" stroke="#800000" d="M163.5,-440.5C163.5,-440.5 222.5,-440.5 222.5,-440.5 228.5,-440.5 234.5,-446.5 234.5,-452.5 234.5,-452.5 234.5,-464.5 234.5,-464.5 234.5,-470.5 228.5,-476.5 222.5,-476.5 222.5,-476.5 163.5,-476.5 163.5,-476.5 157.5,-476.5 151.5,-470.5 151.5,-464.5 151.5,-464.5 151.5,-452.5 151.5,-452.5 151.5,-446.5 157.5,-440.5 163.5,-440.5"/>
<text text-anchor="middle" x="193" y="-456.3" font-family="Consolas" font-size="9.00">rcu_read_lock()</text>
</g>
<!-- sched_core_share_pid()&#45;&gt;rcu_read_lock() -->
<g id="edge13" class="edge"><title>sched_core_share_pid()&#45;&gt;rcu_read_lock()</title>
<path fill="none" stroke="black" stroke-width="0.5" d="M71.1418,-550.415C82.8099,-531.935 103.088,-503.471 127,-485.5 132.953,-481.026 139.754,-477.152 146.664,-473.846"/>
<polygon fill="black" stroke="black" stroke-width="0.5" points="151.455,-471.648 147.849,-475.778 149.183,-472.691 146.91,-473.733 146.91,-473.733 146.91,-473.733 149.183,-472.691 145.972,-471.688 151.455,-471.648 151.455,-471.648"/>
</g>
<!-- find_task_by_vpid() -->
<g id="node17" class="node"><title>find_task_by_vpid()</title>
<path fill="#ffffbf" stroke="#800000" d="M155,-385.5C155,-385.5 231,-385.5 231,-385.5 237,-385.5 243,-391.5 243,-397.5 243,-397.5 243,-409.5 243,-409.5 243,-415.5 237,-421.5 231,-421.5 231,-421.5 155,-421.5 155,-421.5 149,-421.5 143,-415.5 143,-409.5 143,-409.5 143,-397.5 143,-397.5 143,-391.5 149,-385.5 155,-385.5"/>
<text text-anchor="middle" x="193" y="-401.3" font-family="Consolas" font-size="9.00">find_task_by_vpid()</text>
</g>
<!-- sched_core_share_pid()&#45;&gt;find_task_by_vpid() -->
<g id="edge14" class="edge"><title>sched_core_share_pid()&#45;&gt;find_task_by_vpid()</title>
<path fill="none" stroke="black" stroke-width="0.5" d="M64.7609,-550.346C72.4473,-521.324 91.2605,-464.314 127,-430.5 130.39,-427.293 134.214,-424.442 138.269,-421.912"/>
<polygon fill="black" stroke="black" stroke-width="0.5" points="142.749,-419.291 139.569,-423.758 140.591,-420.554 138.433,-421.816 138.433,-421.816 138.433,-421.816 140.591,-420.554 137.297,-419.874 142.749,-419.291 142.749,-419.291"/>
</g>
<!-- rcu_read_unlock() -->
<g id="node18" class="node"><title>rcu_read_unlock()</title>
<path fill="#ffffbf" stroke="#800000" d="M158,-330.5C158,-330.5 228,-330.5 228,-330.5 234,-330.5 240,-336.5 240,-342.5 240,-342.5 240,-354.5 240,-354.5 240,-360.5 234,-366.5 228,-366.5 228,-366.5 158,-366.5 158,-366.5 152,-366.5 146,-360.5 146,-354.5 146,-354.5 146,-342.5 146,-342.5 146,-336.5 152,-330.5 158,-330.5"/>
<text text-anchor="middle" x="193" y="-346.3" font-family="Consolas" font-size="9.00">rcu_read_unlock()</text>
</g>
<!-- sched_core_share_pid()&#45;&gt;rcu_read_unlock() -->
<g id="edge15" class="edge"><title>sched_core_share_pid()&#45;&gt;rcu_read_unlock()</title>
<path fill="none" stroke="black" stroke-width="0.5" d="M61.8775,-550.292C65.6486,-512.798 79.304,-426.243 127,-375.5 131.119,-371.118 136.057,-367.422 141.347,-364.312"/>
<polygon fill="black" stroke="black" stroke-width="0.5" points="145.862,-361.835 142.561,-366.212 143.671,-363.037 141.479,-364.24 141.479,-364.24 141.479,-364.24 143.671,-363.037 140.397,-362.267 145.862,-361.835 145.862,-361.835"/>
</g>
<!-- get_task_struct() -->
<g id="node19" class="node"><title>get_task_struct()</title>
<path fill="#ffffbf" stroke="#800000" d="M159,-275.5C159,-275.5 227,-275.5 227,-275.5 233,-275.5 239,-281.5 239,-287.5 239,-287.5 239,-299.5 239,-299.5 239,-305.5 233,-311.5 227,-311.5 227,-311.5 159,-311.5 159,-311.5 153,-311.5 147,-305.5 147,-299.5 147,-299.5 147,-287.5 147,-287.5 147,-281.5 153,-275.5 159,-275.5"/>
<text text-anchor="middle" x="193" y="-291.3" font-family="Consolas" font-size="9.00">get_task_struct()</text>
</g>
<!-- sched_core_share_pid()&#45;&gt;get_task_struct() -->
<g id="edge16" class="edge"><title>sched_core_share_pid()&#45;&gt;get_task_struct()</title>
<path fill="none" stroke="black" stroke-width="0.5" d="M60.1985,-550.425C60.4251,-505.767 67.0695,-388.894 127,-320.5 131.3,-315.593 136.633,-311.559 142.382,-308.246"/>
<polygon fill="black" stroke="black" stroke-width="0.5" points="146.849,-305.851 143.506,-310.197 144.646,-307.032 142.443,-308.214 142.443,-308.214 142.443,-308.214 144.646,-307.032 141.379,-306.231 146.849,-305.851 146.849,-305.851"/>
</g>
<!-- ptrace_may_access() -->
<g id="node20" class="node"><title>ptrace_may_access()</title>
<path fill="#ffffbf" stroke="#800000" d="M151.5,-220.5C151.5,-220.5 234.5,-220.5 234.5,-220.5 240.5,-220.5 246.5,-226.5 246.5,-232.5 246.5,-232.5 246.5,-244.5 246.5,-244.5 246.5,-250.5 240.5,-256.5 234.5,-256.5 234.5,-256.5 151.5,-256.5 151.5,-256.5 145.5,-256.5 139.5,-250.5 139.5,-244.5 139.5,-244.5 139.5,-232.5 139.5,-232.5 139.5,-226.5 145.5,-220.5 151.5,-220.5"/>
<text text-anchor="middle" x="193" y="-236.3" font-family="Consolas" font-size="9.00">ptrace_may_access()</text>
</g>
<!-- sched_core_share_pid()&#45;&gt;ptrace_may_access() -->
<g id="edge17" class="edge"><title>sched_core_share_pid()&#45;&gt;ptrace_may_access()</title>
<path fill="none" stroke="black" stroke-width="0.5" d="M62.297,-550.278C68.3988,-491.738 90.0275,-309.702 127,-265.5 129.372,-262.665 132.09,-260.122 135.041,-257.844"/>
<polygon fill="black" stroke="black" stroke-width="0.5" points="139.198,-254.897 136.42,-259.624 137.158,-256.343 135.119,-257.788 135.119,-257.788 135.119,-257.788 137.158,-256.343 133.817,-255.953 139.198,-254.897 139.198,-254.897"/>
</g>
<!-- ptr_to_hashval() -->
<g id="node21" class="node"><title>ptr_to_hashval()</title>
<path fill="#ffffbf" stroke="#800000" d="M161.5,-165.5C161.5,-165.5 224.5,-165.5 224.5,-165.5 230.5,-165.5 236.5,-171.5 236.5,-177.5 236.5,-177.5 236.5,-189.5 236.5,-189.5 236.5,-195.5 230.5,-201.5 224.5,-201.5 224.5,-201.5 161.5,-201.5 161.5,-201.5 155.5,-201.5 149.5,-195.5 149.5,-189.5 149.5,-189.5 149.5,-177.5 149.5,-177.5 149.5,-171.5 155.5,-165.5 161.5,-165.5"/>
<text text-anchor="middle" x="193" y="-181.3" font-family="Consolas" font-size="9.00">ptr_to_hashval()</text>
</g>
<!-- sched_core_share_pid()&#45;&gt;ptr_to_hashval() -->
<g id="edge19" class="edge"><title>sched_core_share_pid()&#45;&gt;ptr_to_hashval()</title>
<path fill="none" stroke="black" stroke-width="0.5" d="M61.6253,-550.27C65.9897,-484.991 83.7519,-263.94 127,-210.5 131.747,-204.635 137.986,-200.028 144.72,-196.414"/>
<polygon fill="black" stroke="black" stroke-width="0.5" points="149.45,-194.067 145.971,-198.305 147.21,-195.178 144.971,-196.29 144.971,-196.29 144.971,-196.29 147.21,-195.178 143.971,-194.274 149.45,-194.067 149.45,-194.067"/>
</g>
<!-- put_user() -->
<g id="node22" class="node"><title>put_user()</title>
<path fill="#ffffbf" stroke="#800000" d="M174.5,-110.5C174.5,-110.5 211.5,-110.5 211.5,-110.5 217.5,-110.5 223.5,-116.5 223.5,-122.5 223.5,-122.5 223.5,-134.5 223.5,-134.5 223.5,-140.5 217.5,-146.5 211.5,-146.5 211.5,-146.5 174.5,-146.5 174.5,-146.5 168.5,-146.5 162.5,-140.5 162.5,-134.5 162.5,-134.5 162.5,-122.5 162.5,-122.5 162.5,-116.5 168.5,-110.5 174.5,-110.5"/>
<text text-anchor="middle" x="193" y="-126.3" font-family="Consolas" font-size="9.00">put_user()</text>
</g>
<!-- sched_core_share_pid()&#45;&gt;put_user() -->
<g id="edge20" class="edge"><title>sched_core_share_pid()&#45;&gt;put_user()</title>
<path fill="none" stroke="black" stroke-width="0.5" d="M61.1383,-550.015C63.9642,-478.145 77.493,-218.198 127,-155.5 134.62,-145.85 146.292,-139.614 157.654,-135.6"/>
<polygon fill="black" stroke="black" stroke-width="0.5" points="162.491,-134.012 158.442,-137.71 160.116,-134.792 157.741,-135.572 157.741,-135.572 157.741,-135.572 160.116,-134.792 157.039,-133.434 162.491,-134.012 162.491,-134.012"/>
</g>
<!-- sched_core_alloc_cookie() -->
<g id="node23" class="node"><title>sched_core_alloc_cookie()</title>
<path fill="#ffffbf" stroke="#800000" d="M140.5,-55.5C140.5,-55.5 245.5,-55.5 245.5,-55.5 251.5,-55.5 257.5,-61.5 257.5,-67.5 257.5,-67.5 257.5,-79.5 257.5,-79.5 257.5,-85.5 251.5,-91.5 245.5,-91.5 245.5,-91.5 140.5,-91.5 140.5,-91.5 134.5,-91.5 128.5,-85.5 128.5,-79.5 128.5,-79.5 128.5,-67.5 128.5,-67.5 128.5,-61.5 134.5,-55.5 140.5,-55.5"/>
<text text-anchor="middle" x="193" y="-71.3" font-family="Consolas" font-size="9.00">sched_core_alloc_cookie()</text>
</g>
<!-- sched_core_share_pid()&#45;&gt;sched_core_alloc_cookie() -->
<g id="edge21" class="edge"><title>sched_core_share_pid()&#45;&gt;sched_core_alloc_cookie()</title>
<path fill="none" stroke="black" stroke-width="0.5" d="M60.7458,-550.263C62.1319,-472.919 71.0865,-172.674 127,-100.5 128.555,-98.4925 130.286,-96.6331 132.154,-94.9108"/>
<polygon fill="black" stroke="black" stroke-width="0.5" points="136.169,-91.5649 133.768,-96.4945 134.248,-93.1655 132.328,-94.7662 132.328,-94.7662 132.328,-94.7662 134.248,-93.1655 130.887,-93.0378 136.169,-91.5649 136.169,-91.5649"/>
</g>
<!-- __sched_core_set() -->
<g id="node27" class="node"><title>__sched_core_set()</title>
<path fill="#ffffbf" stroke="#800000" d="M154.5,-644.5C154.5,-644.5 231.5,-644.5 231.5,-644.5 237.5,-644.5 243.5,-650.5 243.5,-656.5 243.5,-656.5 243.5,-668.5 243.5,-668.5 243.5,-674.5 237.5,-680.5 231.5,-680.5 231.5,-680.5 154.5,-680.5 154.5,-680.5 148.5,-680.5 142.5,-674.5 142.5,-668.5 142.5,-668.5 142.5,-656.5 142.5,-656.5 142.5,-650.5 148.5,-644.5 154.5,-644.5"/>
<text text-anchor="middle" x="193" y="-660.3" font-family="Consolas" font-size="9.00">__sched_core_set()</text>
</g>
<!-- sched_core_share_pid()&#45;&gt;__sched_core_set() -->
<g id="edge25" class="edge"><title>sched_core_share_pid()&#45;&gt;__sched_core_set()</title>
<path fill="none" stroke="black" stroke-width="0.5" d="M77.7105,-586.752C90.5145,-599.69 108.844,-616.917 127,-629.5 133.461,-633.977 140.612,-638.225 147.74,-642.09"/>
<polygon fill="black" stroke="black" stroke-width="0.5" points="152.168,-644.446 146.697,-644.084 149.961,-643.272 147.754,-642.097 147.754,-642.097 147.754,-642.097 149.961,-643.272 148.81,-640.111 152.168,-644.446 152.168,-644.446"/>
</g>
<!-- read_lock() -->
<g id="node38" class="node"><title>read_lock()</title>
<path fill="#ffffbf" stroke="#800000" d="M172.5,-1029.5C172.5,-1029.5 213.5,-1029.5 213.5,-1029.5 219.5,-1029.5 225.5,-1035.5 225.5,-1041.5 225.5,-1041.5 225.5,-1053.5 225.5,-1053.5 225.5,-1059.5 219.5,-1065.5 213.5,-1065.5 213.5,-1065.5 172.5,-1065.5 172.5,-1065.5 166.5,-1065.5 160.5,-1059.5 160.5,-1053.5 160.5,-1053.5 160.5,-1041.5 160.5,-1041.5 160.5,-1035.5 166.5,-1029.5 172.5,-1029.5"/>
<text text-anchor="middle" x="193" y="-1045.3" font-family="Consolas" font-size="9.00">read_lock()</text>
</g>
<!-- sched_core_share_pid()&#45;&gt;read_lock() -->
<g id="edge38" class="edge"><title>sched_core_share_pid()&#45;&gt;read_lock()</title>
<path fill="none" stroke="black" stroke-width="0.5" d="M60.8451,-586.625C62.6233,-662.138 72.9098,-951.033 127,-1020.5 134.096,-1029.61 144.814,-1035.68 155.511,-1039.7"/>
<polygon fill="black" stroke="black" stroke-width="0.5" points="160.411,-1041.41 154.949,-1041.89 158.051,-1040.59 155.69,-1039.76 155.69,-1039.76 155.69,-1039.76 158.051,-1040.59 156.431,-1037.64 160.411,-1041.41 160.411,-1041.41"/>
</g>
<!-- task_pid_type() -->
<g id="node39" class="node"><title>task_pid_type()</title>
<path fill="#ffffbf" stroke="#800000" d="M163.5,-919.5C163.5,-919.5 222.5,-919.5 222.5,-919.5 228.5,-919.5 234.5,-925.5 234.5,-931.5 234.5,-931.5 234.5,-943.5 234.5,-943.5 234.5,-949.5 228.5,-955.5 222.5,-955.5 222.5,-955.5 163.5,-955.5 163.5,-955.5 157.5,-955.5 151.5,-949.5 151.5,-943.5 151.5,-943.5 151.5,-931.5 151.5,-931.5 151.5,-925.5 157.5,-919.5 163.5,-919.5"/>
<text text-anchor="middle" x="193" y="-935.3" font-family="Consolas" font-size="9.00">task_pid_type()</text>
</g>
<!-- sched_core_share_pid()&#45;&gt;task_pid_type() -->
<g id="edge39" class="edge"><title>sched_core_share_pid()&#45;&gt;task_pid_type()</title>
<path fill="none" stroke="black" stroke-width="0.5" d="M61.8348,-586.719C66.7951,-649.924 86.0296,-858.661 127,-909.5 132.236,-915.997 139.267,-921.017 146.774,-924.887"/>
<polygon fill="black" stroke="black" stroke-width="0.5" points="151.497,-927.151 146.016,-927.019 149.242,-926.07 146.988,-924.99 146.988,-924.99 146.988,-924.99 149.242,-926.07 147.961,-922.961 151.497,-927.151 151.497,-927.151"/>
</g>
<!-- do_each_pid_thread() -->
<g id="node40" class="node"><title>do_each_pid_thread()</title>
<path fill="#ffffbf" stroke="#800000" d="M150,-864.5C150,-864.5 236,-864.5 236,-864.5 242,-864.5 248,-870.5 248,-876.5 248,-876.5 248,-888.5 248,-888.5 248,-894.5 242,-900.5 236,-900.5 236,-900.5 150,-900.5 150,-900.5 144,-900.5 138,-894.5 138,-888.5 138,-888.5 138,-876.5 138,-876.5 138,-870.5 144,-864.5 150,-864.5"/>
<text text-anchor="middle" x="193" y="-880.3" font-family="Consolas" font-size="9.00">do_each_pid_thread()</text>
</g>
<!-- sched_core_share_pid()&#45;&gt;do_each_pid_thread() -->
<g id="edge40" class="edge"><title>sched_core_share_pid()&#45;&gt;do_each_pid_thread()</title>
<path fill="none" stroke="black" stroke-width="0.5" d="M62.5987,-586.867C69.3742,-643.315 92.2624,-812.943 127,-854.5 129.069,-856.975 131.396,-859.236 133.908,-861.302"/>
<polygon fill="black" stroke="black" stroke-width="0.5" points="137.997,-864.391 132.651,-863.172 136.002,-862.884 134.007,-861.377 134.007,-861.377 134.007,-861.377 136.002,-862.884 135.364,-859.582 137.997,-864.391 137.997,-864.391"/>
</g>
<!-- while_each_pid_thread() -->
<g id="node41" class="node"><title>while_each_pid_thread()</title>
<path fill="#ffffbf" stroke="#800000" d="M144,-809.5C144,-809.5 242,-809.5 242,-809.5 248,-809.5 254,-815.5 254,-821.5 254,-821.5 254,-833.5 254,-833.5 254,-839.5 248,-845.5 242,-845.5 242,-845.5 144,-845.5 144,-845.5 138,-845.5 132,-839.5 132,-833.5 132,-833.5 132,-821.5 132,-821.5 132,-815.5 138,-809.5 144,-809.5"/>
<text text-anchor="middle" x="193" y="-825.3" font-family="Consolas" font-size="9.00">while_each_pid_thread()</text>
</g>
<!-- sched_core_share_pid()&#45;&gt;while_each_pid_thread() -->
<g id="edge41" class="edge"><title>sched_core_share_pid()&#45;&gt;while_each_pid_thread()</title>
<path fill="none" stroke="black" stroke-width="0.5" d="M60.6901,-586.555C62.0872,-628.989 71.2759,-736.243 127,-799.5 129.185,-801.981 131.629,-804.249 134.253,-806.323"/>
<polygon fill="black" stroke="black" stroke-width="0.5" points="138.514,-809.423 133.147,-808.301 136.493,-807.952 134.471,-806.481 134.471,-806.481 134.471,-806.481 136.493,-807.952 135.795,-804.662 138.514,-809.423 138.514,-809.423"/>
</g>
<!-- read_unlock() -->
<g id="node42" class="node"><title>read_unlock()</title>
<path fill="#ffffbf" stroke="#800000" d="M167.5,-754.5C167.5,-754.5 218.5,-754.5 218.5,-754.5 224.5,-754.5 230.5,-760.5 230.5,-766.5 230.5,-766.5 230.5,-778.5 230.5,-778.5 230.5,-784.5 224.5,-790.5 218.5,-790.5 218.5,-790.5 167.5,-790.5 167.5,-790.5 161.5,-790.5 155.5,-784.5 155.5,-778.5 155.5,-778.5 155.5,-766.5 155.5,-766.5 155.5,-760.5 161.5,-754.5 167.5,-754.5"/>
<text text-anchor="middle" x="193" y="-770.3" font-family="Consolas" font-size="9.00">read_unlock()</text>
</g>
<!-- sched_core_share_pid()&#45;&gt;read_unlock() -->
<g id="edge42" class="edge"><title>sched_core_share_pid()&#45;&gt;read_unlock()</title>
<path fill="none" stroke="black" stroke-width="0.5" d="M62.6479,-586.678C67.6864,-621.634 83.3355,-698.803 127,-744.5 133.518,-751.321 141.973,-756.569 150.617,-760.574"/>
<polygon fill="black" stroke="black" stroke-width="0.5" points="155.428,-762.674 149.945,-762.736 153.136,-761.674 150.845,-760.674 150.845,-760.674 150.845,-760.674 153.136,-761.674 151.745,-758.612 155.428,-762.674 155.428,-762.674"/>
</g>
<!-- put_task_struct() -->
<g id="node43" class="node"><title>put_task_struct()</title>
<path fill="#ffffbf" stroke="#800000" d="M159,-699.5C159,-699.5 227,-699.5 227,-699.5 233,-699.5 239,-705.5 239,-711.5 239,-711.5 239,-723.5 239,-723.5 239,-729.5 233,-735.5 227,-735.5 227,-735.5 159,-735.5 159,-735.5 153,-735.5 147,-729.5 147,-723.5 147,-723.5 147,-711.5 147,-711.5 147,-705.5 153,-699.5 159,-699.5"/>
<text text-anchor="middle" x="193" y="-715.3" font-family="Consolas" font-size="9.00">put_task_struct()</text>
</g>
<!-- sched_core_share_pid()&#45;&gt;put_task_struct() -->
<g id="edge44" class="edge"><title>sched_core_share_pid()&#45;&gt;put_task_struct()</title>
<path fill="none" stroke="black" stroke-width="0.5" d="M66.3103,-586.924C75.3836,-612.986 95.2425,-660.647 127,-689.5 131.547,-693.631 136.798,-697.217 142.303,-700.312"/>
<polygon fill="black" stroke="black" stroke-width="0.5" points="146.978,-702.798 141.507,-702.437 144.771,-701.625 142.564,-700.451 142.564,-700.451 142.564,-700.451 144.771,-701.625 143.62,-698.464 146.978,-702.798 146.978,-702.798"/>
</g>
<!-- kmalloc() -->
<g id="node24" class="node"><title>kmalloc()</title>
<path fill="#ffffbf" stroke="#800000" d="M322.5,-55.5C322.5,-55.5 354.5,-55.5 354.5,-55.5 360.5,-55.5 366.5,-61.5 366.5,-67.5 366.5,-67.5 366.5,-79.5 366.5,-79.5 366.5,-85.5 360.5,-91.5 354.5,-91.5 354.5,-91.5 322.5,-91.5 322.5,-91.5 316.5,-91.5 310.5,-85.5 310.5,-79.5 310.5,-79.5 310.5,-67.5 310.5,-67.5 310.5,-61.5 316.5,-55.5 322.5,-55.5"/>
<text text-anchor="middle" x="338.5" y="-71.3" font-family="Consolas" font-size="9.00">kmalloc()</text>
</g>
<!-- sched_core_alloc_cookie()&#45;&gt;kmalloc() -->
<g id="edge22" class="edge"><title>sched_core_alloc_cookie()&#45;&gt;kmalloc()</title>
<path fill="none" stroke="black" stroke-width="0.5" d="M257.777,-73.5C274.177,-73.5 291.14,-73.5 305.18,-73.5"/>
<polygon fill="black" stroke="black" stroke-width="0.5" points="310.215,-73.5 305.215,-75.7501 307.715,-73.5 305.215,-73.5001 305.215,-73.5001 305.215,-73.5001 307.715,-73.5 305.215,-71.2501 310.215,-73.5 310.215,-73.5"/>
</g>
<!-- refcount_set() -->
<g id="node25" class="node"><title>refcount_set()</title>
<path fill="#ffffbf" stroke="#800000" d="M312,-0.5C312,-0.5 365,-0.5 365,-0.5 371,-0.5 377,-6.5 377,-12.5 377,-12.5 377,-24.5 377,-24.5 377,-30.5 371,-36.5 365,-36.5 365,-36.5 312,-36.5 312,-36.5 306,-36.5 300,-30.5 300,-24.5 300,-24.5 300,-12.5 300,-12.5 300,-6.5 306,-0.5 312,-0.5"/>
<text text-anchor="middle" x="338.5" y="-16.3" font-family="Consolas" font-size="9.00">refcount_set()</text>
</g>
<!-- sched_core_alloc_cookie()&#45;&gt;refcount_set() -->
<g id="edge23" class="edge"><title>sched_core_alloc_cookie()&#45;&gt;refcount_set()</title>
<path fill="none" stroke="black" stroke-width="0.5" d="M241.121,-55.422C249.73,-52.1203 258.635,-48.7062 267,-45.5 276.067,-42.0249 285.79,-38.2999 295.031,-34.7607"/>
<polygon fill="black" stroke="black" stroke-width="0.5" points="299.813,-32.9291 295.949,-36.8187 297.479,-33.8233 295.144,-34.7175 295.144,-34.7175 295.144,-34.7175 297.479,-33.8233 294.339,-32.6163 299.813,-32.9291 299.813,-32.9291"/>
</g>
<!-- sched_core_get() -->
<g id="node26" class="node"><title>sched_core_get()</title>
<path fill="#ffffbf" stroke="#800000" d="M305,-110.5C305,-110.5 372,-110.5 372,-110.5 378,-110.5 384,-116.5 384,-122.5 384,-122.5 384,-134.5 384,-134.5 384,-140.5 378,-146.5 372,-146.5 372,-146.5 305,-146.5 305,-146.5 299,-146.5 293,-140.5 293,-134.5 293,-134.5 293,-122.5 293,-122.5 293,-116.5 299,-110.5 305,-110.5"/>
<text text-anchor="middle" x="338.5" y="-126.3" font-family="Consolas" font-size="9.00">sched_core_get()</text>
</g>
<!-- sched_core_alloc_cookie()&#45;&gt;sched_core_get() -->
<g id="edge24" class="edge"><title>sched_core_alloc_cookie()&#45;&gt;sched_core_get()</title>
<path fill="none" stroke="black" stroke-width="0.5" d="M240.987,-91.5091C256.099,-97.301 272.881,-103.733 288.157,-109.588"/>
<polygon fill="black" stroke="black" stroke-width="0.5" points="292.846,-111.385 287.371,-111.697 290.511,-110.49 288.177,-109.596 288.177,-109.596 288.177,-109.596 290.511,-110.49 288.982,-107.495 292.846,-111.385 292.846,-111.385"/>
</g>
<!-- __sched_core_set()&#45;&gt;sched_core_get_cookie() -->
<g id="edge26" class="edge"><title>__sched_core_set()&#45;&gt;sched_core_get_cookie()</title>
<path fill="none" stroke="black" stroke-width="0.5" d="M243.795,-676.38C249.637,-679.834 254.948,-684.138 259,-689.5 268.173,-701.639 262.858,-742.859 267,-757.5 280.605,-805.59 307.703,-857.594 324.054,-886.598"/>
<polygon fill="black" stroke="black" stroke-width="0.5" points="326.583,-891.051 322.158,-887.814 325.349,-888.877 324.114,-886.703 324.114,-886.703 324.114,-886.703 325.349,-888.877 326.071,-885.592 326.583,-891.051 326.583,-891.051"/>
</g>
<!-- __sched_core_set()&#45;&gt;sched_core_put_cookie() -->
<g id="edge37" class="edge"><title>__sched_core_set()&#45;&gt;sched_core_put_cookie()</title>
<path fill="none" stroke="black" stroke-width="0.5" d="M238.981,-680.581C245.733,-683.469 252.58,-686.497 259,-689.5 272.52,-695.824 287.075,-703.248 299.935,-710.027"/>
<polygon fill="black" stroke="black" stroke-width="0.5" points="304.591,-712.493 299.12,-712.142 302.382,-711.323 300.172,-710.153 300.172,-710.153 300.172,-710.153 302.382,-711.323 301.225,-708.165 304.591,-712.493 304.591,-712.493"/>
</g>
<!-- sched_core_update_cookie() -->
<g id="node28" class="node"><title>sched_core_update_cookie()</title>
<path fill="#ffffbf" stroke="#800000" d="M280.5,-437.5C280.5,-437.5 396.5,-437.5 396.5,-437.5 402.5,-437.5 408.5,-443.5 408.5,-449.5 408.5,-449.5 408.5,-461.5 408.5,-461.5 408.5,-467.5 402.5,-473.5 396.5,-473.5 396.5,-473.5 280.5,-473.5 280.5,-473.5 274.5,-473.5 268.5,-467.5 268.5,-461.5 268.5,-461.5 268.5,-449.5 268.5,-449.5 268.5,-443.5 274.5,-437.5 280.5,-437.5"/>
<text text-anchor="middle" x="338.5" y="-453.3" font-family="Consolas" font-size="9.00">sched_core_update_cookie()</text>
</g>
<!-- __sched_core_set()&#45;&gt;sched_core_update_cookie() -->
<g id="edge27" class="edge"><title>__sched_core_set()&#45;&gt;sched_core_update_cookie()</title>
<path fill="none" stroke="black" stroke-width="0.5" d="M214.179,-644.346C227.788,-631.499 245.632,-613.43 259,-595.5 287.655,-557.064 313.25,-507.058 326.955,-478.393"/>
<polygon fill="black" stroke="black" stroke-width="0.5" points="329.213,-473.639 329.101,-479.121 328.141,-475.897 327.068,-478.156 327.068,-478.156 327.068,-478.156 328.141,-475.897 325.036,-477.19 329.213,-473.639 329.213,-473.639"/>
</g>
<!-- task_rq_lock() -->
<g id="node29" class="node"><title>task_rq_lock()</title>
<path fill="#ffffbf" stroke="#800000" d="M452,-189.5C452,-189.5 506,-189.5 506,-189.5 512,-189.5 518,-195.5 518,-201.5 518,-201.5 518,-213.5 518,-213.5 518,-219.5 512,-225.5 506,-225.5 506,-225.5 452,-225.5 452,-225.5 446,-225.5 440,-219.5 440,-213.5 440,-213.5 440,-201.5 440,-201.5 440,-195.5 446,-189.5 452,-189.5"/>
<text text-anchor="middle" x="479" y="-205.3" font-family="Consolas" font-size="9.00">task_rq_lock()</text>
</g>
<!-- sched_core_update_cookie()&#45;&gt;task_rq_lock() -->
<g id="edge28" class="edge"><title>sched_core_update_cookie()&#45;&gt;task_rq_lock()</title>
<path fill="none" stroke="black" stroke-width="0.5" d="M341.168,-437.307C345.859,-396.092 362.675,-294.531 418,-234.5 422.843,-229.245 428.902,-224.946 435.294,-221.449"/>
<polygon fill="black" stroke="black" stroke-width="0.5" points="439.762,-219.155 436.342,-223.441 437.538,-220.297 435.314,-221.439 435.314,-221.439 435.314,-221.439 437.538,-220.297 434.286,-219.438 439.762,-219.155 439.762,-219.155"/>
</g>
<!-- SCHED_WARN_ON() -->
<g id="node30" class="node"><title>SCHED_WARN_ON()</title>
<path fill="#ffffbf" stroke="#800000" d="M440,-629.5C440,-629.5 518,-629.5 518,-629.5 524,-629.5 530,-635.5 530,-641.5 530,-641.5 530,-653.5 530,-653.5 530,-659.5 524,-665.5 518,-665.5 518,-665.5 440,-665.5 440,-665.5 434,-665.5 428,-659.5 428,-653.5 428,-653.5 428,-641.5 428,-641.5 428,-635.5 434,-629.5 440,-629.5"/>
<text text-anchor="middle" x="479" y="-645.3" font-family="Consolas" font-size="9.00">SCHED_WARN_ON()</text>
</g>
<!-- sched_core_update_cookie()&#45;&gt;SCHED_WARN_ON() -->
<g id="edge29" class="edge"><title>sched_core_update_cookie()&#45;&gt;SCHED_WARN_ON()</title>
<path fill="none" stroke="black" stroke-width="0.5" d="M343.827,-473.645C352.548,-506.666 375.16,-577.077 418,-619.5 420.583,-622.058 423.444,-624.411 426.474,-626.571"/>
<polygon fill="black" stroke="black" stroke-width="0.5" points="430.701,-629.398 425.294,-628.489 428.622,-628.008 426.544,-626.619 426.544,-626.619 426.544,-626.619 428.622,-628.008 427.795,-624.748 430.701,-629.398 430.701,-629.398"/>
</g>
<!-- sched_core_enabled() -->
<g id="node31" class="node"><title>sched_core_enabled()</title>
<path fill="#ffffbf" stroke="#800000" d="M436,-574.5C436,-574.5 522,-574.5 522,-574.5 528,-574.5 534,-580.5 534,-586.5 534,-586.5 534,-598.5 534,-598.5 534,-604.5 528,-610.5 522,-610.5 522,-610.5 436,-610.5 436,-610.5 430,-610.5 424,-604.5 424,-598.5 424,-598.5 424,-586.5 424,-586.5 424,-580.5 430,-574.5 436,-574.5"/>
<text text-anchor="middle" x="479" y="-590.3" font-family="Consolas" font-size="9.00">sched_core_enabled()</text>
</g>
<!-- sched_core_update_cookie()&#45;&gt;sched_core_enabled() -->
<g id="edge30" class="edge"><title>sched_core_update_cookie()&#45;&gt;sched_core_enabled()</title>
<path fill="none" stroke="black" stroke-width="0.5" d="M348.663,-473.514C361.426,-497.093 386.568,-538.471 418,-564.5 421.182,-567.135 424.653,-569.582 428.269,-571.841"/>
<polygon fill="black" stroke="black" stroke-width="0.5" points="432.572,-574.408 427.125,-573.779 430.425,-573.127 428.278,-571.847 428.278,-571.847 428.278,-571.847 430.425,-573.127 429.43,-569.914 432.572,-574.408 432.572,-574.408"/>
</g>
<!-- sched_core_enqueued() -->
<g id="node32" class="node"><title>sched_core_enqueued()</title>
<path fill="#ffffbf" stroke="#800000" d="M431.5,-519.5C431.5,-519.5 526.5,-519.5 526.5,-519.5 532.5,-519.5 538.5,-525.5 538.5,-531.5 538.5,-531.5 538.5,-543.5 538.5,-543.5 538.5,-549.5 532.5,-555.5 526.5,-555.5 526.5,-555.5 431.5,-555.5 431.5,-555.5 425.5,-555.5 419.5,-549.5 419.5,-543.5 419.5,-543.5 419.5,-531.5 419.5,-531.5 419.5,-525.5 425.5,-519.5 431.5,-519.5"/>
<text text-anchor="middle" x="479" y="-535.3" font-family="Consolas" font-size="9.00">sched_core_enqueued()</text>
</g>
<!-- sched_core_update_cookie()&#45;&gt;sched_core_enqueued() -->
<g id="edge31" class="edge"><title>sched_core_update_cookie()&#45;&gt;sched_core_enqueued()</title>
<path fill="none" stroke="black" stroke-width="0.5" d="M363.57,-473.604C378.768,-484.64 399.047,-498.658 418,-509.5 422.584,-512.122 427.454,-514.704 432.361,-517.177"/>
<polygon fill="black" stroke="black" stroke-width="0.5" points="436.871,-519.416 431.392,-519.208 434.631,-518.304 432.392,-517.193 432.392,-517.193 432.392,-517.193 434.631,-518.304 433.392,-515.177 436.871,-519.416 436.871,-519.416"/>
</g>
<!-- sched_core_dequeue() -->
<g id="node33" class="node"><title>sched_core_dequeue()</title>
<path fill="#ffffbf" stroke="#800000" d="M434.5,-464.5C434.5,-464.5 523.5,-464.5 523.5,-464.5 529.5,-464.5 535.5,-470.5 535.5,-476.5 535.5,-476.5 535.5,-488.5 535.5,-488.5 535.5,-494.5 529.5,-500.5 523.5,-500.5 523.5,-500.5 434.5,-500.5 434.5,-500.5 428.5,-500.5 422.5,-494.5 422.5,-488.5 422.5,-488.5 422.5,-476.5 422.5,-476.5 422.5,-470.5 428.5,-464.5 434.5,-464.5"/>
<text text-anchor="middle" x="479" y="-480.3" font-family="Consolas" font-size="9.00">sched_core_dequeue()</text>
</g>
<!-- sched_core_update_cookie()&#45;&gt;sched_core_dequeue() -->
<g id="edge32" class="edge"><title>sched_core_update_cookie()&#45;&gt;sched_core_dequeue()</title>
<path fill="none" stroke="black" stroke-width="0.5" d="M408.75,-469C411.624,-469.56 414.498,-470.121 417.353,-470.677"/>
<polygon fill="black" stroke="black" stroke-width="0.5" points="422.465,-471.674 417.127,-472.925 420.011,-471.195 417.557,-470.717 417.557,-470.717 417.557,-470.717 420.011,-471.195 417.988,-468.508 422.465,-471.674 422.465,-471.674"/>
</g>
<!-- sched_core_enqueue() -->
<g id="node34" class="node"><title>sched_core_enqueue()</title>
<path fill="#ffffbf" stroke="#800000" d="M434.5,-409.5C434.5,-409.5 523.5,-409.5 523.5,-409.5 529.5,-409.5 535.5,-415.5 535.5,-421.5 535.5,-421.5 535.5,-433.5 535.5,-433.5 535.5,-439.5 529.5,-445.5 523.5,-445.5 523.5,-445.5 434.5,-445.5 434.5,-445.5 428.5,-445.5 422.5,-439.5 422.5,-433.5 422.5,-433.5 422.5,-421.5 422.5,-421.5 422.5,-415.5 428.5,-409.5 434.5,-409.5"/>
<text text-anchor="middle" x="479" y="-425.3" font-family="Consolas" font-size="9.00">sched_core_enqueue()</text>
</g>
<!-- sched_core_update_cookie()&#45;&gt;sched_core_enqueue() -->
<g id="edge33" class="edge"><title>sched_core_update_cookie()&#45;&gt;sched_core_enqueue()</title>
<path fill="none" stroke="black" stroke-width="0.5" d="M408.75,-441.5C411.624,-440.919 414.498,-440.338 417.353,-439.761"/>
<polygon fill="black" stroke="black" stroke-width="0.5" points="422.465,-438.727 418.01,-441.924 420.014,-439.223 417.564,-439.718 417.564,-439.718 417.564,-439.718 420.014,-439.223 417.118,-437.513 422.465,-438.727 422.465,-438.727"/>
</g>
<!-- task_running() -->
<g id="node35" class="node"><title>task_running()</title>
<path fill="#ffffbf" stroke="#800000" d="M451.5,-354.5C451.5,-354.5 506.5,-354.5 506.5,-354.5 512.5,-354.5 518.5,-360.5 518.5,-366.5 518.5,-366.5 518.5,-378.5 518.5,-378.5 518.5,-384.5 512.5,-390.5 506.5,-390.5 506.5,-390.5 451.5,-390.5 451.5,-390.5 445.5,-390.5 439.5,-384.5 439.5,-378.5 439.5,-378.5 439.5,-366.5 439.5,-366.5 439.5,-360.5 445.5,-354.5 451.5,-354.5"/>
<text text-anchor="middle" x="479" y="-370.3" font-family="Consolas" font-size="9.00">task_running()</text>
</g>
<!-- sched_core_update_cookie()&#45;&gt;task_running() -->
<g id="edge34" class="edge"><title>sched_core_update_cookie()&#45;&gt;task_running()</title>
<path fill="none" stroke="black" stroke-width="0.5" d="M362.398,-437.337C377.643,-425.712 398.401,-410.754 418,-399.5 423.262,-396.478 428.925,-393.548 434.594,-390.801"/>
<polygon fill="black" stroke="black" stroke-width="0.5" points="439.349,-388.539 435.801,-392.719 437.092,-389.613 434.834,-390.687 434.834,-390.687 434.834,-390.687 437.092,-389.613 433.868,-388.655 439.349,-388.539 439.349,-388.539"/>
</g>
<!-- resched_curr() -->
<g id="node36" class="node"><title>resched_curr()</title>
<path fill="#ffffbf" stroke="#800000" d="M451.5,-299.5C451.5,-299.5 506.5,-299.5 506.5,-299.5 512.5,-299.5 518.5,-305.5 518.5,-311.5 518.5,-311.5 518.5,-323.5 518.5,-323.5 518.5,-329.5 512.5,-335.5 506.5,-335.5 506.5,-335.5 451.5,-335.5 451.5,-335.5 445.5,-335.5 439.5,-329.5 439.5,-323.5 439.5,-323.5 439.5,-311.5 439.5,-311.5 439.5,-305.5 445.5,-299.5 451.5,-299.5"/>
<text text-anchor="middle" x="479" y="-315.3" font-family="Consolas" font-size="9.00">resched_curr()</text>
</g>
<!-- sched_core_update_cookie()&#45;&gt;resched_curr() -->
<g id="edge35" class="edge"><title>sched_core_update_cookie()&#45;&gt;resched_curr()</title>
<path fill="none" stroke="black" stroke-width="0.5" d="M348.313,-437.493C360.857,-413.472 385.936,-370.912 418,-344.5 423.059,-340.333 428.863,-336.678 434.826,-333.514"/>
<polygon fill="black" stroke="black" stroke-width="0.5" points="439.407,-331.19 435.966,-335.459 437.177,-332.321 434.948,-333.452 434.948,-333.452 434.948,-333.452 437.177,-332.321 433.93,-331.446 439.407,-331.19 439.407,-331.19"/>
</g>
<!-- task_rq_unlock() -->
<g id="node37" class="node"><title>task_rq_unlock()</title>
<path fill="#ffffbf" stroke="#800000" d="M446.5,-244.5C446.5,-244.5 511.5,-244.5 511.5,-244.5 517.5,-244.5 523.5,-250.5 523.5,-256.5 523.5,-256.5 523.5,-268.5 523.5,-268.5 523.5,-274.5 517.5,-280.5 511.5,-280.5 511.5,-280.5 446.5,-280.5 446.5,-280.5 440.5,-280.5 434.5,-274.5 434.5,-268.5 434.5,-268.5 434.5,-256.5 434.5,-256.5 434.5,-250.5 440.5,-244.5 446.5,-244.5"/>
<text text-anchor="middle" x="479" y="-260.3" font-family="Consolas" font-size="9.00">task_rq_unlock()</text>
</g>
<!-- sched_core_update_cookie()&#45;&gt;task_rq_unlock() -->
<g id="edge36" class="edge"><title>sched_core_update_cookie()&#45;&gt;task_rq_unlock()</title>
<path fill="none" stroke="black" stroke-width="0.5" d="M343.64,-437.34C352.116,-403.936 374.426,-332.259 418,-289.5 421.547,-286.02 425.62,-282.943 429.939,-280.232"/>
<polygon fill="black" stroke="black" stroke-width="0.5" points="434.33,-277.643 431.166,-282.121 432.177,-278.913 430.023,-280.183 430.023,-280.183 430.023,-280.183 432.177,-278.913 428.88,-278.245 434.33,-277.643 434.33,-277.643"/>
</g>
</g>
</svg>
